<?xml version="1.0" encoding="utf-8"?>
<!DOCTYPE svg PUBLIC "-//W3C//DTD SVG 20010904//EN" "http://www.w3.org/TR/2001/REC-SVG-20010904/DTD/svg10.dtd">
<svg version="1.0" xmlns="http://www.w3.org/2000/svg" width="778pt" height="345pt" viewBox="0 0 778 345" preserveAspectRatio="xMidYMid meet">
<g fill="#FEA401FE">
<path d="M 622.76 273.97 C 612.62 272.26 604.51 268.35 593.75 259.97 L 591.00 257.83 L 591.00 264.42 L 591.00 271.00 L 576.50 271.00 L 562.00 271.00 L 562.00 160.00 L 562.00 49.00 L 576.50 49.00 L 591.00 49.00 L 591.00 103.58 L 591.00 158.17 L 595.73 154.00 C 602.04 148.45 611.17 143.45 618.46 141.55 C 625.42 139.74 636.68 139.54 644.20 141.10 C 664.87 145.38 683.26 164.05 689.03 186.61 C 691.75 197.24 691.77 216.68 689.07 227.23 C 680.93 259.04 652.62 279.00 622.76 273.97ZM 634.72 247.59 C 667.49 238.86 671.63 185.40 640.78 169.31 C 636.11 166.88 634.40 166.56 626.00 166.54 C 617.76 166.52 615.77 166.87 611.00 169.16 C 598.50 175.17 591.00 186.82 589.49 202.58 C 586.64 232.49 608.75 254.50 634.72 247.59Z"/></g>
<g fill="#FEA401FE">
<path d="M 453.87 273.99 C 429.36 270.13 409.92 251.03 404.51 225.47 C 402.62 216.56 402.61 197.53 404.49 188.50 C 408.14 170.98 421.85 152.97 437.06 145.71 C 446.62 141.14 454.78 139.59 465.78 140.25 C 478.31 140.99 489.01 145.67 499.25 154.87 L 503.00 158.23 L 503.00 150.62 L 503.00 143.00 L 517.50 143.00 L 532.00 143.00 L 532.00 207.00 L 532.00 271.00 L 517.50 271.00 L 503.00 271.00 L 503.00 264.42 L 503.00 257.83 L 500.25 259.96 C 484.54 272.09 469.92 276.52 453.87 273.99ZM 479.14 246.99 C 493.18 242.56 501.97 231.11 504.21 214.35 C 506.86 194.51 498.34 176.23 483.15 169.17 C 478.39 166.96 476.08 166.54 468.50 166.52 C 460.88 166.50 458.66 166.90 453.99 169.09 C 438.44 176.38 429.52 195.84 432.83 215.25 C 437.12 240.44 456.93 254.01 479.14 246.99Z"/></g>
<g fill="#FEA401FE">
<path d="M 349.00 160.00 L 349.00 49.00 L 364.00 49.00 L 379.00 49.00 L 379.00 160.00 L 379.00 271.00 L 364.00 271.00 L 349.00 271.00 L 349.00 160.00Z"/></g>
<g fill="#FFD835FE">
<path d="M 206.21 252.50 C 194.70 239.43 188.68 218.49 191.11 200.01 C 194.58 173.66 212.30 151.88 237.02 143.57 C 248.25 139.79 263.22 138.96 274.52 141.47 C 283.51 143.47 297.53 150.37 303.85 155.91 L 308.19 159.72 L 296.85 171.16 L 285.50 182.60 L 279.42 178.47 C 260.89 165.90 236.15 172.95 225.89 193.72 C 223.88 197.77 223.52 200.02 223.51 208.50 C 223.50 217.38 223.81 219.12 226.22 224.00 C 227.71 227.03 230.04 230.67 231.38 232.11 L 233.82 234.72 L 222.64 245.86 C 216.50 251.99 211.18 257.00 210.82 257.00 C 210.46 257.00 208.39 254.97 206.21 252.50Z"/></g>
<g fill="#FEA401FE">
<path d="M 242.51 275.44 C 234.22 273.36 221.45 266.92 215.67 261.90 L 210.83 257.70 L 222.06 246.44 L 233.30 235.17 L 238.14 238.50 C 245.61 243.64 251.81 245.31 261.48 244.81 C 267.79 244.47 271.01 243.74 275.23 241.67 C 282.08 238.33 289.30 230.74 292.80 223.22 C 295.09 218.31 295.46 216.22 295.41 208.50 C 295.36 198.81 293.50 192.97 288.32 186.18 L 285.79 182.85 L 288.14 180.24 C 289.44 178.80 294.47 173.65 299.31 168.79 L 308.13 159.95 L 312.59 165.23 C 317.75 171.32 324.19 184.04 326.15 192.00 C 326.91 195.11 327.49 202.71 327.47 209.50 C 327.45 219.29 327.02 222.78 325.15 228.43 C 317.75 250.78 303.03 266.14 281.80 273.68 C 275.69 275.84 272.38 276.32 261.50 276.60 C 252.26 276.85 246.77 276.51 242.51 275.44Z"/></g>
<g fill="#FEA401FE">
<path d="M 104.87 255.23 C 94.92 244.66 89.20 232.43 86.92 216.85 C 84.03 197.08 92.50 173.35 107.67 158.76 L 111.56 155.03 L 122.99 166.49 L 134.41 177.95 L 129.76 182.41 C 114.78 196.76 114.69 219.72 129.56 234.67 L 134.70 239.83 L 123.58 250.92 C 117.47 257.01 112.19 262.00 111.86 262.00 C 111.52 262.00 108.38 258.96 104.87 255.23Z"/></g>
<g fill="#FFD835FE">
<path d="M 180.83 183.21 C 179.88 180.97 171.72 175.88 166.00 173.96 C 157.51 171.12 148.71 171.61 140.45 175.39 L 134.59 178.08 L 123.11 166.60 L 111.63 155.12 L 114.07 153.14 C 118.97 149.15 129.99 143.92 137.56 141.99 C 151.61 138.39 170.36 139.81 182.58 145.41 C 191.10 149.31 199.20 155.04 198.55 156.72 C 197.85 158.55 181.93 184.00 181.49 184.00 C 181.31 184.00 181.02 183.65 180.83 183.21Z"/></g>
<g fill="#FFD835FE">
<path d="M 145.47 276.99 C 134.77 275.53 121.97 270.32 114.24 264.25 L 111.99 262.48 L 123.42 251.08 L 134.85 239.69 L 140.17 242.00 C 147.44 245.16 158.94 245.84 165.91 243.53 C 168.75 242.59 173.29 240.32 175.99 238.50 L 180.91 235.19 L 190.08 248.27 L 199.24 261.35 L 195.87 264.14 C 191.19 268.01 179.67 273.52 172.50 275.32 C 164.62 277.29 152.98 278.01 145.47 276.99Z"/></g>
</svg>
