<?xml version="1.0" encoding="utf-8"?>
<!DOCTYPE svg PUBLIC "-//W3C//DTD SVG 20010904//EN" "http://www.w3.org/TR/2001/REC-SVG-20010904/DTD/svg10.dtd">
<svg version="1.0" xmlns="http://www.w3.org/2000/svg" width="962pt" height="963pt" viewBox="0 0 962 963" preserveAspectRatio="xMidYMid meet">
<g fill="#0866FFFE">
<path d="M 540.00 792.60 L 540.00 628.01 L 604.70 627.76 L 669.39 627.50 L 682.66 555.50 C 689.95 515.90 695.94 482.94 695.96 482.25 C 695.99 481.26 679.75 481.00 618.00 481.00 L 540.00 481.00 L 540.00 445.75 C 540.01 409.74 540.79 398.07 544.05 385.31 C 553.50 348.34 575.61 330.14 618.78 323.78 C 628.43 322.36 683.03 322.04 696.25 323.33 L 704.00 324.08 L 704.00 257.14 L 704.00 190.20 L 696.75 188.60 C 664.37 181.46 612.70 177.30 578.01 179.02 C 513.71 182.23 468.00 197.33 432.33 227.14 C 401.53 252.88 380.06 293.63 370.98 343.60 C 366.25 369.64 365.80 376.40 365.30 429.75 L 364.82 481.00 L 315.41 481.00 L 266.00 481.00 L 266.00 554.50 L 266.00 628.00 L 315.50 628.00 L 365.00 628.00 L 365.00 787.00 C 365.00 916.37 364.76 946.00 363.71 946.00 C 361.90 946.00 346.82 941.65 332.00 936.85 C 209.93 897.35 106.80 807.60 50.04 691.50 C 0.61 590.39 -11.60 474.60 15.61 365.14 C 55.25 205.67 174.29 77.29 330.50 25.57 C 379.73 9.27 427.00 1.80 481.00 1.80 C 525.62 1.80 561.45 6.29 602.65 17.04 C 757.98 57.55 884.52 175.60 935.46 327.49 C 952.37 377.91 960.26 426.74 960.28 481.00 C 960.30 517.17 957.46 545.29 950.35 579.43 C 920.29 723.70 824.16 847.19 691.50 911.94 C 644.48 934.89 602.80 947.49 543.75 956.60 L 540.00 957.18 L 540.00 792.60Z"/></g>
<g fill="#FEFEFFFE">
<path d="M 466.00 960.35 C 439.01 959.40 411.18 956.11 385.50 950.83 C 377.25 949.13 369.26 947.52 367.75 947.26 L 365.00 946.77 L 365.00 786.89 L 365.00 627.00 L 315.50 627.00 L 266.00 627.00 L 266.00 554.00 L 266.00 481.00 L 315.35 481.00 L 364.70 481.00 L 365.32 434.75 C 365.66 409.31 366.40 383.77 366.97 378.00 C 373.95 306.96 395.25 258.78 433.90 226.59 C 464.27 201.30 503.43 186.87 558.00 180.86 C 572.93 179.21 619.82 179.20 636.50 180.83 C 657.44 182.89 679.68 185.90 691.50 188.28 L 702.50 190.50 L 702.76 256.87 L 703.01 323.24 L 695.76 322.58 C 683.02 321.44 630.06 321.73 620.00 323.00 C 580.80 327.95 556.82 344.94 546.30 375.20 C 540.47 391.94 539.80 398.27 539.29 441.25 L 538.81 481.00 L 616.90 481.00 C 687.67 481.00 695.00 481.15 695.00 482.59 C 695.00 483.47 689.15 516.03 682.00 554.96 C 674.85 593.89 669.00 626.02 669.00 626.37 C 669.00 626.72 639.75 627.00 604.00 627.00 L 539.00 627.00 L 539.00 791.89 L 539.00 956.78 L 535.75 957.35 C 525.09 959.24 484.32 961.00 466.00 960.35Z"/></g>
</svg>
