<?xml version="1.0" encoding="utf-8"?>
<!DOCTYPE svg PUBLIC "-//W3C//DTD SVG 20010904//EN" "http://www.w3.org/TR/2001/REC-SVG-20010904/DTD/svg10.dtd">
<svg version="1.0" xmlns="http://www.w3.org/2000/svg" width="1275pt" height="1282pt" viewBox="0 0 1275 1282" preserveAspectRatio="xMidYMid meet">
<g fill="#00ADEFFF">
<path d="M 377.50 773.96 C 372.55 773.54 361.98 772.67 354.00 772.03 C 339.71 770.88 319.39 768.36 318.10 767.56 C 317.74 767.34 313.63 766.64 308.97 766.02 C 304.31 765.39 298.93 764.49 297.00 764.01 C 295.07 763.53 290.80 762.58 287.50 761.90 C 284.20 761.22 281.05 760.34 280.50 759.94 C 279.95 759.55 277.70 759.03 275.50 758.78 C 273.30 758.54 268.35 757.54 264.50 756.56 C 255.34 754.23 217.22 742.10 214.00 740.49 C 209.95 738.47 206.91 737.21 199.64 734.53 C 188.90 730.58 146.79 709.42 145.00 707.09 C 144.39 706.29 133.33 698.94 130.38 697.38 C 129.21 696.76 125.67 694.28 122.50 691.87 C 119.34 689.47 115.05 686.38 112.96 685.00 C 103.01 678.43 73.58 651.72 65.48 641.89 C 63.84 639.90 59.74 635.18 56.37 631.39 C 53.00 627.60 47.72 621.13 44.62 617.00 C 38.11 608.33 38.39 610.54 40.49 583.50 C 41.90 565.36 42.60 559.26 45.08 543.50 C 45.69 539.65 46.56 533.80 47.03 530.50 C 47.49 527.20 48.84 520.23 50.03 515.00 C 51.23 509.77 52.60 503.48 53.09 501.00 C 54.47 494.06 55.66 489.02 57.40 482.75 C 58.28 479.59 59.64 474.64 60.42 471.75 C 66.46 449.36 82.90 404.54 91.30 387.50 C 93.20 383.65 97.02 375.77 99.78 370.00 C 102.55 364.23 108.45 353.04 112.91 345.15 C 117.36 337.25 121.00 330.60 121.00 330.37 C 121.00 329.84 126.17 321.88 127.50 320.35 C 128.56 319.14 139.71 302.14 141.62 298.82 C 142.24 297.75 143.85 295.66 145.19 294.19 C 146.54 292.71 149.15 288.93 151.01 285.78 C 152.86 282.64 155.31 279.04 156.45 277.78 C 157.59 276.53 161.66 271.45 165.50 266.50 C 174.49 254.90 174.93 254.36 185.00 243.07 C 196.86 229.76 223.56 203.05 235.50 192.56 C 241.00 187.73 247.24 182.25 249.36 180.39 C 251.49 178.52 253.66 177.00 254.19 177.00 C 254.73 177.00 256.64 175.54 258.44 173.75 C 265.03 167.21 285.14 152.09 290.68 149.51 C 292.43 148.70 294.16 147.56 294.52 146.97 C 295.08 146.06 299.52 142.86 304.89 139.49 C 305.78 138.94 309.65 136.44 313.50 133.95 C 317.35 131.46 321.62 128.87 323.00 128.21 C 325.22 127.15 336.03 120.65 340.00 117.99 C 341.64 116.89 377.07 99.38 383.50 96.49 C 385.70 95.50 390.75 93.19 394.72 91.35 C 398.69 89.51 402.54 88.00 403.27 88.00 C 404.00 88.00 405.03 87.59 405.55 87.08 C 406.07 86.57 408.98 85.27 412.00 84.18 C 415.02 83.09 420.65 81.00 424.50 79.54 C 445.81 71.43 493.43 58.00 500.88 58.00 C 502.12 58.00 504.04 57.52 505.14 56.92 C 506.25 56.33 512.41 54.98 518.83 53.93 C 525.25 52.87 534.33 51.36 539.00 50.58 C 547.03 49.23 552.61 48.62 581.50 45.91 C 602.02 43.99 651.08 44.51 678.50 46.94 C 691.70 48.11 705.88 49.71 710.00 50.49 C 714.12 51.27 723.12 52.87 730.00 54.04 C 736.88 55.22 743.53 56.59 744.80 57.09 C 746.06 57.59 748.02 58.00 749.15 58.00 C 751.75 58.00 764.22 60.77 769.50 62.52 C 771.70 63.25 775.08 64.13 777.00 64.48 C 783.87 65.71 826.79 79.56 834.47 83.01 C 836.69 84.01 841.15 85.78 844.38 86.95 C 847.62 88.11 853.95 90.86 858.46 93.04 C 862.96 95.22 866.93 97.00 867.27 97.00 C 868.57 97.00 897.92 111.63 907.28 116.95 C 912.65 120.00 918.28 123.12 919.78 123.88 C 921.27 124.64 923.40 126.01 924.50 126.92 C 925.60 127.84 927.85 129.24 929.50 130.03 C 931.15 130.82 933.62 132.21 935.00 133.10 C 936.38 134.00 941.55 137.36 946.50 140.56 C 951.45 143.76 955.73 146.72 956.02 147.12 C 956.30 147.53 960.09 150.26 964.43 153.18 C 977.84 162.22 985.71 168.12 991.38 173.39 C 993.51 175.38 995.55 177.00 995.92 177.00 C 996.52 177.00 1003.17 182.79 1010.07 189.33 C 1011.48 190.67 1015.08 193.77 1018.07 196.22 C 1028.21 204.52 1054.69 231.60 1070.17 249.50 C 1078.78 259.46 1091.00 274.90 1091.00 275.83 C 1091.00 276.36 1091.67 277.05 1092.50 277.36 C 1093.33 277.68 1094.00 278.45 1094.00 279.08 C 1094.00 280.11 1095.67 282.46 1104.99 294.50 C 1109.86 300.80 1121.00 317.86 1121.00 319.03 C 1121.00 319.61 1122.03 321.20 1123.29 322.56 C 1124.55 323.92 1126.91 327.72 1128.54 331.00 C 1130.17 334.28 1131.84 336.97 1132.25 336.98 C 1132.66 336.99 1133.00 337.41 1133.00 337.90 C 1133.00 338.72 1137.21 346.43 1142.05 354.50 C 1144.58 358.71 1153.49 376.92 1157.71 386.48 C 1159.66 390.89 1162.06 396.30 1163.04 398.50 C 1164.02 400.70 1165.71 404.75 1166.81 407.50 C 1167.91 410.25 1169.97 415.26 1171.40 418.63 C 1172.83 421.99 1174.00 425.39 1174.00 426.18 C 1174.00 426.96 1174.41 428.03 1174.92 428.55 C 1176.00 429.67 1184.43 455.35 1189.33 472.50 C 1194.63 491.02 1201.67 523.07 1203.93 539.00 C 1209.40 577.50 1212.57 622.41 1210.03 625.47 C 1209.19 626.48 1207.02 627.00 1203.63 626.99 C 1196.97 626.98 1177.70 628.68 1157.20 631.09 C 1148.23 632.14 1138.70 633.00 1136.01 633.00 C 1133.33 633.00 1130.03 633.42 1128.69 633.93 C 1127.35 634.44 1123.84 635.09 1120.88 635.38 C 1111.57 636.29 1085.69 639.94 1081.00 641.00 C 1078.53 641.56 1071.78 642.66 1066.00 643.45 C 1053.11 645.22 1034.29 648.53 1014.50 652.51 C 1010.65 653.28 1001.20 655.10 993.50 656.55 C 985.80 658.00 974.90 660.27 969.27 661.59 C 963.65 662.92 958.13 664.00 957.01 664.00 C 955.89 664.00 952.39 664.66 949.23 665.47 C 946.08 666.27 937.20 668.35 929.50 670.08 C 903.77 675.87 836.05 692.42 827.50 695.02 C 825.85 695.52 821.58 696.64 818.00 697.51 C 807.66 700.03 803.37 701.33 780.00 709.04 C 752.91 717.98 713.39 729.98 704.30 732.03 C 698.93 733.24 692.27 734.97 690.00 735.75 C 684.56 737.62 654.13 745.00 651.88 745.00 C 650.36 745.00 648.84 745.45 648.50 746.00 C 648.16 746.55 646.36 747.00 644.50 747.00 C 642.64 747.00 640.87 747.40 640.57 747.89 C 640.26 748.39 638.32 749.00 636.26 749.26 C 634.19 749.52 622.83 751.75 611.00 754.22 C 599.17 756.69 586.12 759.24 582.00 759.89 C 574.80 761.01 563.84 762.82 550.00 765.16 C 546.42 765.76 540.35 766.61 536.50 767.03 C 532.65 767.46 525.90 768.27 521.50 768.82 C 508.31 770.48 479.46 773.03 464.00 773.90 C 445.52 774.94 389.30 774.98 377.50 773.96ZM 482.00 741.50 C 492.54 740.95 503.20 739.72 512.50 737.98 C 515.25 737.46 519.52 736.83 522.00 736.58 C 533.57 735.39 559.42 730.46 572.50 726.95 C 574.70 726.35 578.46 725.46 580.85 724.95 C 586.32 723.78 610.45 716.25 614.65 714.39 C 616.38 713.63 618.30 713.00 618.91 713.00 C 619.53 713.00 620.81 712.58 621.76 712.06 C 622.72 711.54 626.42 709.80 630.00 708.19 C 642.15 702.72 645.01 701.19 652.00 696.38 C 654.48 694.67 657.85 692.58 659.50 691.73 C 661.15 690.87 664.91 687.88 667.85 685.07 C 670.79 682.27 673.97 679.42 674.90 678.74 C 677.38 676.94 685.17 663.96 690.35 653.00 C 698.44 635.91 704.33 620.66 709.49 603.50 C 710.98 598.55 712.82 592.48 713.58 590.00 C 717.81 576.22 724.77 545.87 727.58 529.00 C 728.36 524.33 729.23 519.15 729.50 517.50 C 730.64 510.73 732.93 493.93 733.86 485.50 C 734.81 477.02 735.63 466.72 738.00 433.47 C 739.86 407.31 739.04 347.42 736.40 317.23 C 735.60 308.16 734.04 308.81 731.51 319.26 C 729.73 326.62 718.82 360.85 717.08 364.50 C 716.56 365.60 714.69 370.55 712.93 375.50 C 711.17 380.45 709.27 385.62 708.71 387.00 C 707.56 389.82 705.44 395.29 701.58 405.37 C 698.27 414.00 695.08 421.19 686.57 439.13 C 684.06 444.43 682.00 449.05 682.00 449.41 C 682.00 450.77 660.75 492.52 659.90 492.83 C 659.40 493.02 659.00 493.99 659.00 495.00 C 659.00 496.01 658.64 496.98 658.21 497.17 C 657.78 497.35 656.09 500.16 654.46 503.41 C 649.06 514.20 647.99 516.00 646.99 516.00 C 646.45 516.00 646.00 516.75 646.00 517.66 C 646.00 519.97 633.41 540.98 619.86 561.27 C 616.64 566.10 614.00 570.26 614.00 570.52 C 614.00 570.78 610.85 575.24 607.00 580.43 C 603.15 585.62 600.00 590.27 600.00 590.76 C 600.00 591.66 591.42 603.08 590.06 604.00 C 589.64 604.27 588.68 605.69 587.90 607.15 C 586.68 609.45 574.58 625.64 573.06 627.00 C 572.75 627.27 570.72 629.75 568.54 632.50 C 566.36 635.25 562.77 639.43 560.56 641.78 C 558.35 644.13 556.13 646.83 555.62 647.78 C 555.10 648.73 552.51 651.61 549.84 654.19 C 547.18 656.78 545.00 659.16 545.00 659.49 C 545.00 660.98 506.04 700.47 493.50 711.69 C 481.59 722.34 465.18 736.09 461.75 738.28 C 460.24 739.25 459.00 740.76 459.00 741.64 C 459.00 742.99 459.95 743.14 465.25 742.64 C 468.69 742.31 476.23 741.80 482.00 741.50ZM 317.50 721.96 C 337.75 718.81 339.10 718.53 354.50 714.17 C 373.23 708.87 378.93 707.12 382.50 705.59 C 384.15 704.88 387.07 703.71 389.00 702.99 C 403.70 697.47 427.19 686.43 440.85 678.63 C 444.34 676.63 447.39 675.00 447.64 675.00 C 447.88 675.00 448.63 674.54 449.29 673.97 C 449.96 673.41 452.75 671.52 455.50 669.79 C 473.59 658.35 489.01 647.11 503.85 634.56 C 508.44 630.68 514.06 625.92 516.35 624.00 C 518.63 622.08 521.89 619.15 523.59 617.50 C 525.28 615.85 529.33 612.00 532.58 608.95 C 540.51 601.52 555.92 584.77 566.16 572.47 C 570.75 566.95 575.74 561.10 577.25 559.48 C 578.76 557.85 580.00 556.26 580.00 555.94 C 580.00 555.62 581.38 553.82 583.08 551.93 C 584.77 550.04 588.17 545.47 590.64 541.77 C 593.11 538.07 595.52 534.80 596.00 534.50 C 596.49 534.20 597.86 531.99 599.07 529.58 C 600.27 527.18 602.23 524.15 603.43 522.86 C 604.62 521.56 606.48 518.93 607.55 517.02 C 608.62 515.10 610.08 512.92 610.78 512.16 C 611.49 511.41 612.94 509.07 614.02 506.96 C 615.09 504.86 616.77 502.54 617.74 501.82 C 618.71 501.09 619.62 499.92 619.76 499.21 C 619.91 498.50 621.82 494.97 624.01 491.36 C 626.21 487.75 628.00 484.61 628.00 484.39 C 628.00 484.16 631.40 478.02 635.55 470.74 C 639.70 463.46 643.47 456.82 643.92 456.00 C 647.62 449.32 657.70 427.46 659.95 421.22 C 661.48 416.98 664.18 409.68 665.94 405.00 C 667.70 400.32 671.11 391.10 673.51 384.50 C 675.91 377.90 678.99 369.44 680.36 365.70 C 681.73 361.95 683.26 358.35 683.77 357.70 C 684.27 357.04 685.25 354.25 685.94 351.50 C 687.18 346.53 687.62 345.22 690.00 339.50 C 690.68 337.85 692.55 332.45 694.14 327.50 C 695.73 322.55 697.46 317.60 697.97 316.50 C 698.49 315.40 699.57 312.25 700.38 309.50 C 701.18 306.75 703.02 301.57 704.45 298.00 C 705.88 294.43 707.22 290.60 707.42 289.50 C 707.63 288.40 708.67 284.80 709.74 281.50 C 720.70 247.64 727.53 225.27 732.17 208.00 C 733.28 203.88 734.63 198.93 735.17 197.00 C 735.71 195.07 736.52 191.70 736.98 189.50 C 737.43 187.30 738.48 182.57 739.31 179.00 C 740.84 172.41 742.03 166.81 743.94 157.17 C 745.25 150.60 745.32 141.00 744.07 141.00 C 743.56 141.00 741.69 143.55 739.90 146.67 C 738.12 149.79 735.84 153.16 734.85 154.15 C 733.86 155.14 732.35 157.62 731.50 159.65 C 730.65 161.68 728.41 165.24 726.51 167.55 C 724.62 169.86 722.53 172.93 721.88 174.37 C 721.22 175.82 720.30 177.00 719.84 177.00 C 719.38 177.00 719.00 177.43 719.00 177.95 C 719.00 179.13 712.87 188.38 711.79 188.83 C 711.36 189.02 711.00 189.63 711.00 190.19 C 711.00 190.75 709.65 192.92 708.00 195.00 C 706.35 197.08 705.00 199.08 705.00 199.44 C 705.00 199.79 704.05 201.08 702.88 202.29 C 701.72 203.51 700.18 205.86 699.46 207.52 C 698.75 209.18 697.23 211.39 696.08 212.43 C 694.94 213.46 694.00 214.67 694.00 215.11 C 694.00 215.88 690.01 222.31 688.13 224.58 C 687.64 225.17 686.00 227.65 684.47 230.08 C 682.95 232.51 679.85 236.97 677.58 240.00 C 675.31 243.03 671.48 248.65 669.07 252.50 C 666.67 256.35 664.39 259.73 664.01 260.00 C 663.64 260.27 661.69 262.98 659.70 266.00 C 657.70 269.02 653.92 274.61 651.28 278.42 C 648.65 282.23 646.05 286.03 645.50 286.87 C 644.95 287.72 642.92 290.50 641.00 293.06 C 639.08 295.63 636.83 298.75 636.00 300.01 C 635.17 301.27 633.04 304.26 631.25 306.66 C 629.46 309.06 628.00 311.39 628.00 311.84 C 628.00 312.30 626.66 313.98 625.03 315.58 C 623.39 317.19 622.04 319.00 622.03 319.60 C 622.01 320.21 620.85 321.95 619.44 323.47 C 618.03 324.99 615.77 327.87 614.42 329.87 C 613.07 331.87 609.73 336.65 606.99 340.50 C 604.26 344.35 601.45 348.34 600.76 349.37 C 600.07 350.40 598.94 351.83 598.25 352.55 C 597.56 353.27 597.00 354.16 597.00 354.53 C 597.00 354.91 595.54 357.08 593.76 359.36 C 591.98 361.64 590.17 363.95 589.74 364.50 C 587.42 367.51 578.83 379.42 574.61 385.50 C 571.94 389.35 569.13 392.86 568.38 393.30 C 567.62 393.74 567.00 394.56 567.00 395.12 C 567.00 395.68 566.44 396.75 565.75 397.49 C 563.54 399.86 557.15 408.43 552.62 415.09 C 551.27 417.06 549.53 419.33 548.74 420.11 C 547.95 420.90 541.73 428.91 534.90 437.90 C 513.42 466.22 504.00 478.00 502.85 478.00 C 502.38 478.00 502.00 478.61 502.00 479.35 C 502.00 480.10 500.90 481.90 499.55 483.35 C 498.21 484.80 496.74 486.61 496.30 487.36 C 495.10 489.40 489.91 495.88 486.50 499.57 C 484.85 501.36 483.03 503.42 482.46 504.16 C 481.88 504.90 478.99 508.65 476.02 512.50 C 468.92 521.72 454.41 539.27 450.00 543.96 C 448.07 546.01 443.81 550.91 440.53 554.85 C 437.25 558.78 434.21 562.00 433.78 562.00 C 433.35 562.00 433.00 562.58 433.00 563.29 C 433.00 564.00 429.96 567.92 426.25 572.00 C 422.54 576.08 418.29 580.78 416.81 582.46 C 395.69 606.37 380.74 622.24 356.93 645.99 C 332.40 670.45 323.15 679.34 318.78 682.62 C 317.23 683.79 313.37 687.16 310.20 690.12 C 307.04 693.08 301.60 697.75 298.12 700.50 C 294.64 703.25 288.80 707.92 285.14 710.87 C 281.49 713.82 277.49 716.71 276.25 717.28 C 275.01 717.85 274.00 718.71 274.00 719.19 C 274.00 719.66 272.88 720.48 271.50 721.00 C 270.12 721.52 269.00 722.70 269.00 723.61 C 269.00 725.12 270.61 725.22 286.25 724.70 C 296.01 724.38 309.58 723.19 317.50 721.96Z"/></g>
<g fill="#273895FF">
<path d="M 589.00 1209.98 C 551.77 1207.87 514.36 1202.22 479.50 1193.47 C 476.20 1192.64 472.45 1191.73 471.16 1191.44 C 457.81 1188.50 429.20 1179.32 409.42 1171.63 C 389.24 1163.79 356.79 1148.15 357.69 1146.70 C 358.04 1146.12 357.81 1146.00 357.14 1146.42 C 356.49 1146.82 352.06 1145.03 347.23 1142.41 C 329.31 1132.71 316.00 1124.80 316.00 1123.86 C 316.00 1123.32 315.58 1123.14 315.06 1123.46 C 314.55 1123.78 313.66 1123.25 313.09 1122.27 C 312.52 1121.30 312.05 1120.86 312.03 1121.31 C 311.99 1122.34 306.00 1118.84 306.00 1117.78 C 306.00 1117.35 305.52 1117.00 304.93 1117.00 C 303.67 1117.00 294.83 1111.11 293.77 1109.57 C 293.36 1108.98 293.02 1108.88 293.02 1109.34 C 293.01 1109.80 291.71 1109.13 290.14 1107.84 C 288.57 1106.55 286.24 1104.83 284.97 1104.00 C 278.37 1099.70 254.73 1081.46 254.29 1080.32 C 254.01 1079.59 253.27 1078.99 252.64 1078.97 C 251.04 1078.94 242.96 1071.38 243.71 1070.62 C 244.05 1070.28 243.63 1070.00 242.76 1070.00 C 240.21 1070.00 228.81 1059.83 207.45 1038.52 C 182.26 1013.38 164.57 992.41 137.98 956.15 C 134.62 951.56 132.07 947.27 132.32 946.62 C 132.57 945.96 138.01 944.62 144.63 943.59 C 151.16 942.57 173.38 937.48 194.00 932.26 C 214.62 927.05 233.07 922.44 235.00 922.02 C 242.95 920.28 290.46 908.06 307.00 903.50 C 310.02 902.67 319.25 900.17 327.50 897.94 C 347.14 892.64 357.55 889.49 386.50 880.05 C 427.30 866.75 433.08 865.07 463.00 857.91 C 491.51 851.08 523.57 844.39 551.00 839.54 C 556.23 838.61 562.59 837.45 565.14 836.96 C 576.60 834.76 589.18 833.19 637.50 827.95 C 643.00 827.35 652.67 826.24 659.00 825.49 C 665.33 824.73 675.45 823.52 681.50 822.81 C 696.44 821.03 761.14 821.05 778.00 822.82 C 811.22 826.33 837.46 830.21 863.00 835.40 C 892.56 841.40 932.01 852.75 960.50 863.45 C 972.28 867.88 980.48 871.42 980.84 872.24 C 981.02 872.66 981.52 872.79 981.96 872.53 C 982.94 871.92 1014.78 887.78 1021.50 892.23 C 1024.25 894.05 1028.75 896.84 1031.50 898.44 C 1046.92 907.41 1073.53 928.71 1088.62 944.16 C 1100.95 956.80 1103.13 961.44 1099.31 967.03 C 1095.78 972.19 1072.83 998.00 1071.77 998.00 C 1071.17 998.00 1070.95 998.29 1071.30 998.63 C 1071.85 999.18 1061.44 1011.39 1044.56 1030.00 C 1031.96 1043.89 1007.94 1067.08 1006.86 1066.41 C 1006.17 1065.99 1005.96 1066.12 1006.34 1066.74 C 1007.14 1068.03 981.48 1089.59 970.00 1097.27 C 968.62 1098.19 963.69 1101.66 959.03 1104.97 C 954.38 1108.29 950.03 1111.00 949.37 1111.00 C 948.71 1111.00 948.02 1111.34 947.83 1111.75 C 946.85 1113.96 929.34 1124.70 898.75 1141.86 C 896.69 1143.02 894.99 1143.64 894.98 1143.23 C 894.98 1142.83 894.64 1143.01 894.23 1143.63 C 893.48 1144.78 873.72 1155.07 871.65 1155.38 C 871.02 1155.48 869.83 1155.98 869.00 1156.50 C 865.55 1158.68 847.40 1166.49 832.00 1172.42 C 784.21 1190.82 731.72 1203.35 678.66 1209.02 C 659.56 1211.07 616.25 1211.53 589.00 1209.98Z"/></g>
<g fill="#273895FF">
<path d="M 208.00 821.37 C 190.60 820.93 146.58 819.07 128.00 818.00 C 73.68 814.86 73.64 814.86 69.68 812.83 C 65.06 810.48 63.52 807.35 58.40 789.90 C 54.29 775.89 52.59 768.07 53.46 767.20 C 53.94 766.73 66.36 769.28 74.00 771.41 C 84.62 774.38 127.30 781.37 147.50 783.44 C 158.63 784.59 187.35 785.97 211.00 786.49 C 225.57 786.82 256.18 787.50 279.00 788.02 C 357.73 789.81 394.11 789.15 444.00 785.03 C 454.60 784.15 464.88 783.14 490.50 780.42 C 492.70 780.19 497.88 779.57 502.00 779.04 C 506.12 778.51 513.33 777.59 518.00 777.00 C 527.51 775.79 609.26 762.37 615.50 761.00 C 617.70 760.52 623.77 759.37 629.00 758.45 C 634.23 757.54 645.02 755.52 653.00 753.96 C 660.98 752.41 669.41 750.84 671.75 750.48 C 674.09 750.12 677.02 749.67 678.25 749.48 C 679.49 749.28 683.65 748.45 687.50 747.62 C 691.35 746.79 705.98 743.86 720.00 741.11 C 734.02 738.37 750.90 734.94 757.50 733.49 C 764.10 732.05 770.40 730.73 771.50 730.57 C 772.60 730.40 774.17 730.02 775.00 729.71 C 775.83 729.41 777.62 728.96 779.00 728.72 C 780.38 728.48 788.92 726.63 798.00 724.62 C 807.08 722.60 817.42 720.31 821.00 719.52 C 834.19 716.60 867.50 710.68 883.00 708.50 C 884.92 708.23 890.33 707.35 895.00 706.54 C 903.75 705.02 943.63 699.18 964.00 696.43 C 970.33 695.58 978.42 694.46 982.00 693.96 C 988.85 692.99 1004.17 691.06 1025.00 688.56 C 1060.90 684.24 1182.36 674.76 1197.44 675.09 C 1208.07 675.33 1208.40 675.66 1207.68 685.05 C 1207.34 689.36 1206.57 695.94 1205.96 699.69 C 1205.35 703.44 1204.64 707.93 1204.39 709.68 C 1204.14 711.43 1203.10 713.89 1202.07 715.16 C 1199.82 717.94 1197.90 717.98 1178.50 715.60 C 1155.56 712.80 1138.46 712.01 1100.50 712.01 C 1039.11 712.01 998.83 715.09 924.00 725.50 C 913.83 726.92 901.00 728.70 895.50 729.47 C 844.17 736.61 791.41 745.49 744.00 754.96 C 738.77 756.01 733.15 757.08 731.50 757.35 C 729.85 757.63 718.15 759.90 705.49 762.42 C 692.84 764.93 681.14 767.18 679.49 767.43 C 677.85 767.68 672.45 768.81 667.50 769.95 C 662.55 771.09 657.99 771.83 657.37 771.59 C 656.75 771.35 655.84 771.56 655.35 772.05 C 654.35 773.05 602.26 783.61 579.50 787.42 C 557.35 791.13 522.98 795.98 494.00 799.50 C 481.81 800.98 449.23 805.27 437.50 806.95 C 427.00 808.45 383.97 813.67 372.00 814.90 C 330.86 819.13 248.03 822.39 208.00 821.37Z"/></g>
<g fill="#273895FF">
<path d="M 105.21 900.43 C 101.47 895.90 95.79 884.36 96.21 882.16 C 96.48 880.71 98.91 880.41 115.01 879.84 C 133.03 879.20 180.85 874.22 234.50 867.41 C 259.97 864.17 282.63 860.55 299.50 857.03 C 328.57 850.97 349.44 846.74 364.00 843.96 C 389.92 839.02 411.01 835.05 417.00 834.00 C 420.02 833.47 428.21 831.89 435.20 830.48 C 442.18 829.07 449.59 827.70 451.68 827.44 C 453.76 827.17 457.24 826.47 459.42 825.89 C 461.61 825.30 465.44 824.46 467.95 824.01 C 470.45 823.57 482.62 821.12 495.00 818.56 C 596.11 797.68 672.11 784.83 717.00 781.01 C 731.12 779.81 774.68 777.41 798.00 776.54 C 823.32 775.61 862.83 774.02 889.00 772.90 C 930.77 771.10 991.52 770.62 1011.92 771.93 C 1040.11 773.74 1074.82 777.77 1102.75 782.47 C 1114.53 784.46 1160.33 796.74 1160.81 798.04 C 1160.99 798.51 1161.69 798.67 1162.37 798.41 C 1164.18 797.72 1175.84 801.55 1178.08 803.58 C 1179.24 804.62 1180.00 806.63 1180.00 808.63 C 1180.00 812.26 1177.26 820.08 1175.60 821.20 C 1175.03 821.58 1174.84 822.18 1175.19 822.53 C 1175.78 823.11 1172.10 834.25 1168.93 841.50 C 1167.28 845.28 1164.04 849.00 1162.39 849.00 C 1161.70 849.00 1159.86 848.52 1158.32 847.93 C 1156.77 847.34 1155.40 846.87 1155.27 846.89 C 1155.14 846.91 1152.36 845.59 1149.08 843.96 C 1145.80 842.33 1142.64 841.00 1142.06 841.00 C 1141.48 841.00 1141.00 840.65 1141.00 840.21 C 1141.00 839.78 1140.21 839.36 1139.25 839.29 C 1138.29 839.21 1135.26 838.19 1132.53 837.02 C 1122.64 832.77 1087.50 822.64 1075.50 820.58 C 1074.40 820.39 1065.62 818.87 1056.00 817.21 C 1028.78 812.50 996.35 808.52 977.00 807.51 C 970.67 807.18 962.80 806.69 959.50 806.42 C 951.77 805.78 919.53 804.34 881.27 802.92 C 858.82 802.08 842.11 802.08 816.27 802.93 C 797.15 803.55 765.08 804.49 745.00 805.00 C 694.06 806.31 660.86 808.44 628.00 812.50 C 621.67 813.29 614.70 814.14 612.50 814.40 C 595.80 816.39 549.07 825.17 489.50 837.52 C 474.65 840.59 453.95 844.88 443.50 847.03 C 433.05 849.19 421.12 851.67 417.00 852.55 C 412.88 853.43 408.38 854.32 407.00 854.54 C 405.62 854.75 401.35 855.64 397.50 856.50 C 393.65 857.37 388.25 858.52 385.50 859.05 C 382.75 859.58 379.60 860.22 378.50 860.48 C 350.46 867.04 315.44 873.78 285.00 878.48 C 275.93 879.88 266.25 881.46 263.50 881.98 C 260.75 882.50 252.20 883.83 244.50 884.94 C 236.80 886.06 224.65 887.88 217.50 889.00 C 210.35 890.12 201.14 891.48 197.03 892.02 C 192.91 892.56 188.86 893.21 188.03 893.47 C 187.19 893.72 182.90 894.37 178.50 894.92 C 174.10 895.47 164.43 896.85 157.00 897.99 C 149.57 899.13 140.35 900.51 136.50 901.05 C 132.65 901.59 127.92 902.28 126.00 902.58 C 124.08 902.88 119.28 903.33 115.34 903.58 L 108.18 904.04 L 105.21 900.43Z"/></g>
</svg>
