<?xml version="1.0" encoding="utf-8"?>
<!DOCTYPE svg PUBLIC "-//W3C//DTD SVG 20010904//EN" "http://www.w3.org/TR/2001/REC-SVG-20010904/DTD/svg10.dtd">
<svg version="1.0" xmlns="http://www.w3.org/2000/svg" width="1282pt" height="1282pt" viewBox="0 0 1282 1282" preserveAspectRatio="xMidYMid meet">
<g fill="#000000FE">
<path d="M 268.00 1280.34 C 196.84 1276.34 132.82 1247.98 83.42 1198.58 C 34.84 1150.00 6.72 1087.77 2.04 1018.50 C 0.65 997.92 0.65 284.08 2.04 263.50 C 6.00 204.78 26.99 150.77 63.63 105.00 C 72.37 94.08 94.08 72.37 105.00 63.63 C 150.77 26.99 204.78 6.00 263.50 2.04 C 284.69 0.61 996.92 0.63 1018.52 2.06 C 1045.59 3.85 1073.47 9.64 1097.64 18.50 C 1122.40 27.57 1155.37 46.31 1177.00 63.63 C 1187.92 72.37 1209.63 94.08 1218.37 105.00 C 1246.69 140.38 1266.22 182.09 1275.00 225.95 C 1280.81 255.02 1280.50 231.34 1280.50 640.50 C 1280.50 1050.14 1280.81 1026.66 1274.98 1056.05 C 1266.30 1099.74 1246.71 1141.60 1218.37 1177.00 C 1209.63 1187.92 1187.92 1209.63 1177.00 1218.37 C 1142.22 1246.21 1098.88 1266.62 1056.71 1275.00 C 1027.55 1280.80 1058.06 1280.39 648.50 1280.53 C 442.25 1280.59 271.02 1280.51 268.00 1280.34ZM 556.00 1157.40 C 608.69 1151.39 657.96 1132.58 702.69 1101.39 C 749.55 1068.73 786.53 1025.59 811.50 974.50 C 827.25 942.27 835.99 912.22 842.18 869.00 C 844.39 853.54 844.40 853.06 844.95 661.89 L 845.50 470.28 L 861.50 480.78 C 881.22 493.72 894.22 500.92 913.00 509.30 C 937.13 520.07 962.11 528.76 986.50 534.89 C 1009.65 540.71 1055.29 546.95 1084.00 548.21 L 1090.50 548.50 L 1090.76 459.66 L 1091.01 370.81 L 1086.26 371.46 C 1075.21 372.95 1044.68 368.16 1022.56 361.46 C 981.45 348.99 946.36 327.94 915.32 297.11 C 871.82 253.91 844.86 192.42 844.57 135.75 L 844.50 122.01 L 755.26 122.00 L 666.03 122.00 L 665.76 485.25 C 665.50 832.20 665.41 848.93 663.67 858.00 C 654.46 905.88 624.26 946.43 582.50 966.97 C 559.00 978.53 542.69 982.35 516.50 982.41 C 489.44 982.47 471.32 978.23 448.17 966.44 C 432.40 958.40 421.39 950.20 408.46 936.86 C 388.20 915.95 375.13 891.15 368.83 861.65 C 365.92 848.03 365.68 819.26 368.35 805.07 C 378.73 749.88 419.05 704.17 471.50 688.11 C 497.88 680.03 524.25 679.18 550.90 685.55 C 556.62 686.92 561.51 687.83 561.76 687.58 C 562.01 687.32 562.28 646.48 562.36 596.81 L 562.50 506.50 L 557.00 505.80 C 544.87 504.24 507.41 503.74 493.50 504.94 C 424.84 510.88 361.20 536.71 309.22 579.75 C 296.51 590.28 275.02 612.36 263.72 626.51 C 227.16 672.29 206.16 719.39 196.60 777.01 C 192.76 800.20 191.65 813.40 191.67 835.50 C 191.70 857.46 193.23 871.95 198.07 896.00 C 205.50 932.94 215.95 961.57 233.50 993.07 C 267.36 1053.85 324.59 1105.78 387.00 1132.36 C 417.23 1145.23 454.07 1154.79 485.50 1157.92 C 491.55 1158.53 498.07 1159.20 500.00 1159.42 C 506.86 1160.21 542.73 1158.92 556.00 1157.40Z"/></g>
<g fill="#FEFEFEFF">
<path d="M 486.27 1157.51 C 425.59 1150.54 370.16 1129.47 326.00 1096.59 C 296.96 1074.97 266.90 1043.73 248.17 1015.72 C 230.81 989.76 215.97 959.14 208.04 932.91 C 191.88 879.49 188.46 834.27 196.58 781.31 C 205.59 722.57 225.22 677.30 262.61 629.02 C 274.25 613.99 298.56 589.14 313.00 577.49 C 367.40 533.63 435.41 507.91 504.29 505.14 C 520.28 504.49 545.74 505.16 556.25 506.50 L 562.00 507.23 L 562.00 597.46 L 562.00 687.69 L 553.61 685.45 C 539.72 681.74 528.78 680.69 510.34 681.29 C 492.00 681.89 484.27 683.22 468.36 688.51 C 446.05 695.91 427.45 707.53 409.95 724.98 C 373.01 761.84 357.79 813.81 368.95 865.00 C 386.48 945.37 466.00 997.10 546.48 980.47 C 592.29 971.01 632.93 938.50 652.43 895.73 C 660.66 877.67 664.64 860.91 666.02 838.57 C 666.56 829.81 666.96 676.80 666.97 473.25 L 667.00 123.00 L 755.25 123.00 L 843.51 123.00 L 843.68 135.25 C 844.29 177.62 858.21 220.85 883.53 259.00 C 894.73 275.88 902.56 285.35 916.64 299.03 C 931.33 313.31 940.83 321.06 956.40 331.44 C 991.69 355.00 1043.33 371.97 1079.75 371.99 L 1090.00 372.00 L 1090.00 460.00 C 1090.00 533.36 1089.77 548.00 1088.65 548.00 C 1077.79 548.00 1030.74 542.75 1011.73 539.42 C 959.43 530.26 906.21 509.35 863.00 480.98 L 844.50 468.83 L 843.99 662.17 C 843.41 877.15 843.96 860.02 836.49 897.50 C 830.61 927.03 824.19 946.51 812.04 971.68 C 779.72 1038.65 730.86 1088.96 664.50 1123.60 C 631.18 1140.99 597.26 1151.47 557.91 1156.53 C 540.53 1158.77 501.82 1159.30 486.27 1157.51Z"/></g>
<g fill="#B4B5B5FF">
<path d="M 666.49 475.50 C 666.49 281.35 666.61 202.07 666.75 299.33 C 666.89 396.59 666.89 555.44 666.75 652.33 C 666.61 749.22 666.49 669.65 666.49 475.50Z"/></g>
</svg>
