<?xml version="1.0" encoding="utf-8"?>
<!DOCTYPE svg PUBLIC "-//W3C//DTD SVG 20010904//EN" "http://www.w3.org/TR/2001/REC-SVG-20010904/DTD/svg10.dtd">
<svg version="1.0" xmlns="http://www.w3.org/2000/svg" width="352pt" height="352pt" viewBox="0 0 352 352" preserveAspectRatio="xMidYMid meet">
<g fill="#080524FF">
<path d="M 85.00 284.91 C 71.04 284.08 45.80 281.03 44.71 280.04 C 44.28 279.65 44.93 273.96 46.16 267.41 C 50.31 245.27 48.17 215.62 40.99 195.84 C 36.20 182.64 36.24 177.67 41.22 170.36 C 43.33 167.27 45.31 166.29 45.03 168.48 C 44.97 168.99 47.65 169.97 51.00 170.65 C 58.68 172.22 64.00 176.08 74.43 187.68 C 88.07 202.84 101.47 215.51 106.82 218.31 C 109.65 219.79 112.17 221.00 112.42 221.00 C 112.68 221.00 110.89 216.70 108.45 211.45 C 103.67 201.15 96.34 188.31 90.49 179.98 C 88.17 176.68 87.18 174.42 87.78 173.82 C 88.38 173.22 90.47 175.55 93.48 180.18 L 98.23 187.50 L 97.70 179.11 C 97.27 172.31 96.77 170.33 95.03 168.61 C 93.03 166.63 92.83 166.61 91.89 168.26 C 91.15 169.56 90.20 169.84 88.20 169.34 C 85.74 168.73 85.63 168.82 86.91 170.38 C 87.81 171.47 87.97 172.43 87.35 173.05 C 86.11 174.29 81.63 168.41 82.61 166.82 C 82.99 166.20 82.88 165.96 82.35 166.29 C 81.82 166.61 78.52 163.31 75.01 158.94 C 71.51 154.57 68.29 151.00 67.86 151.00 C 67.43 151.00 66.27 151.79 65.29 152.75 C 59.86 158.05 57.05 160.15 56.16 159.60 C 55.60 159.25 58.75 155.37 63.15 150.97 C 67.55 146.57 71.47 143.17 71.87 143.42 C 73.37 144.35 72.98 137.64 71.43 135.92 C 70.54 134.94 69.23 132.46 68.53 130.41 C 67.55 127.56 66.46 126.42 63.90 125.59 C 58.99 123.99 55.72 117.95 56.54 112.00 C 57.44 105.45 57.40 104.08 56.12 98.01 C 54.00 87.95 58.05 77.21 64.57 75.57 C 65.99 75.21 68.81 73.19 70.83 71.07 C 73.00 68.80 76.14 66.77 78.50 66.12 C 84.84 64.37 96.55 64.78 104.93 67.05 C 113.27 69.31 122.54 75.14 121.62 77.54 C 121.33 78.31 122.18 80.87 123.53 83.22 C 126.27 88.02 126.84 94.74 124.58 95.61 C 123.80 95.91 122.64 98.32 122.01 100.98 C 121.04 105.02 121.10 106.30 122.42 108.85 C 125.09 114.01 124.48 118.72 120.66 122.54 C 118.82 124.38 116.49 128.03 115.49 130.66 C 114.49 133.29 111.74 137.51 109.38 140.02 C 106.81 142.77 105.16 145.46 105.25 146.73 C 105.34 147.90 105.71 148.68 106.07 148.45 C 106.44 148.23 107.53 148.93 108.51 150.01 C 109.49 151.09 113.71 153.86 117.89 156.15 C 128.09 161.75 135.01 168.85 137.22 176.00 C 139.77 184.23 141.72 197.76 142.98 216.08 C 144.50 238.17 144.65 239.00 147.09 239.00 C 148.20 239.00 150.49 238.28 152.18 237.41 C 154.05 236.44 156.86 235.97 159.32 236.20 C 163.73 236.62 163.78 236.59 176.28 225.00 C 185.31 216.63 187.00 212.46 191.01 188.64 C 193.17 175.81 195.37 169.75 199.13 166.30 C 202.54 163.16 219.96 153.86 221.10 154.56 C 221.62 154.88 221.93 154.71 221.77 154.18 C 221.62 153.64 223.64 151.57 226.25 149.56 C 228.86 147.55 231.00 145.47 231.00 144.92 C 231.00 144.38 229.40 142.53 227.44 140.81 C 223.83 137.64 220.00 131.33 220.00 128.55 C 220.00 127.70 218.65 125.81 217.00 124.34 C 213.29 121.03 211.83 116.21 213.12 111.54 C 213.64 109.63 214.44 107.85 214.89 107.57 C 216.07 106.84 213.63 98.01 211.97 96.98 C 209.95 95.73 210.49 88.52 212.92 84.41 C 214.03 82.53 214.69 80.37 214.40 79.60 C 214.09 78.78 215.23 77.18 217.18 75.72 C 225.40 69.57 233.85 67.02 246.00 67.03 C 255.84 67.05 261.51 69.06 265.01 73.80 C 266.23 75.45 268.49 77.05 270.03 77.36 C 271.67 77.68 274.01 79.46 275.67 81.63 C 278.26 85.03 278.49 86.04 278.43 93.42 C 278.39 97.86 278.25 103.30 278.13 105.50 C 278.01 107.70 277.99 111.38 278.09 113.69 C 278.32 119.25 275.41 124.17 271.05 125.60 C 268.57 126.41 267.40 127.58 266.55 130.10 C 265.92 131.97 264.88 133.39 264.24 133.26 C 263.60 133.13 263.31 133.65 263.60 134.41 C 263.90 135.17 263.66 136.09 263.07 136.46 C 260.79 137.87 262.09 142.25 266.25 147.19 C 270.99 152.82 276.24 156.72 285.38 161.40 C 298.49 168.12 300.13 170.64 305.96 193.24 C 314.55 226.48 315.78 238.98 313.08 265.78 C 312.04 276.08 311.38 279.26 310.12 279.91 C 309.23 280.38 301.98 281.55 294.00 282.51 C 274.66 284.85 216.93 285.12 207.00 282.92 L 200.50 281.48 L 200.87 261.87 C 201.12 248.50 200.90 242.05 200.16 241.60 C 199.38 241.12 199.39 240.23 200.19 238.49 C 201.02 236.66 200.86 229.20 199.53 208.77 C 198.55 193.77 197.93 179.36 198.14 176.75 C 198.34 174.14 198.25 172.00 197.92 172.00 C 196.85 172.00 195.03 179.24 192.90 191.95 C 189.16 214.34 185.95 220.97 174.44 230.20 C 170.90 233.04 168.00 235.65 168.00 236.01 C 168.00 236.36 169.17 237.74 170.60 239.08 C 174.25 242.49 177.73 248.80 178.55 253.50 C 179.89 261.10 180.22 261.07 188.29 252.62 C 193.51 247.15 196.00 245.18 196.54 246.07 C 197.61 247.79 180.25 264.65 178.85 263.25 C 177.79 262.19 173.02 263.84 173.01 265.26 C 172.99 266.75 161.86 273.12 159.70 272.88 C 158.49 272.74 156.46 272.98 155.18 273.40 C 153.58 273.94 152.31 273.68 151.10 272.59 C 150.13 271.72 148.56 271.00 147.60 271.00 C 146.07 271.00 145.94 271.67 146.53 276.40 C 147.35 282.97 148.41 282.51 129.00 283.92 C 107.98 285.45 97.96 285.67 85.00 284.91ZM 115.65 277.75 C 115.30 274.86 115.01 269.72 115.01 266.33 L 115.00 260.17 L 110.25 258.44 C 101.04 255.10 85.43 247.91 79.58 244.31 C 71.07 239.08 63.64 231.28 54.00 217.47 C 49.59 211.16 48.18 209.49 47.70 210.00 C 47.44 210.28 48.07 215.68 49.09 222.00 C 51.50 236.85 51.47 248.63 48.99 263.32 C 46.14 280.20 45.39 278.58 56.75 279.97 C 76.14 282.34 81.78 282.73 98.89 282.86 L 116.28 283.00 L 115.65 277.75ZM 131.50 273.69 L 131.50 265.89 L 124.74 263.62 C 121.03 262.37 117.84 261.49 117.66 261.68 C 117.27 262.07 117.97 280.03 118.43 281.51 C 118.63 282.12 121.27 282.31 125.13 282.01 L 131.50 281.50 L 131.50 273.69ZM 274.10 281.36 L 282.70 280.77 L 283.29 261.13 C 283.80 244.09 283.60 239.85 281.79 229.00 C 280.35 220.33 279.68 211.60 279.61 200.50 C 279.48 182.16 280.64 177.17 286.55 170.61 C 288.48 168.47 289.93 166.63 289.78 166.51 C 288.99 165.92 275.76 159.00 275.41 159.00 C 275.18 159.00 275.00 159.63 275.00 160.40 C 275.00 161.16 273.88 162.85 272.52 164.15 C 270.63 165.93 270.03 167.53 270.02 170.80 C 269.99 176.86 264.47 187.48 254.23 201.18 C 249.58 207.41 242.41 215.88 238.30 220.00 L 230.83 227.50 L 229.93 236.00 C 228.84 246.33 228.71 281.36 229.75 282.44 C 230.48 283.20 256.98 282.55 274.10 281.36ZM 226.20 272.75 C 226.03 267.66 226.31 255.23 226.82 245.11 L 227.75 226.73 L 224.34 221.00 C 217.35 209.26 210.78 190.72 209.40 178.85 C 208.91 174.61 209.15 172.40 210.37 169.95 C 212.19 166.31 212.53 162.00 211.00 162.00 C 210.45 162.00 207.90 163.31 205.33 164.90 L 200.67 167.80 L 200.87 180.65 C 200.98 187.72 201.60 198.45 202.25 204.50 C 202.89 210.55 203.44 229.97 203.46 247.66 L 203.50 279.83 L 210.00 280.78 C 213.57 281.30 218.75 281.79 221.50 281.87 L 226.50 282.00 L 226.20 272.75ZM 144.12 274.64 C 143.89 269.66 143.40 268.35 140.89 265.89 C 135.70 260.81 134.00 262.63 134.00 273.25 L 134.00 281.10 L 139.20 280.80 L 144.40 280.50 L 144.12 274.64ZM 298.36 279.53 C 303.78 278.75 308.43 277.90 308.69 277.64 C 308.95 277.38 309.85 271.39 310.69 264.33 C 313.69 238.98 310.85 217.17 299.82 180.66 C 297.47 172.88 294.19 168.33 291.65 169.30 C 288.94 170.34 284.18 178.84 282.92 184.87 C 281.34 192.41 282.34 216.43 284.80 230.03 C 286.40 238.88 286.62 243.76 286.21 260.78 C 285.81 277.60 285.96 280.99 287.11 280.97 C 287.88 280.95 292.94 280.30 298.36 279.53ZM 166.02 267.25 C 166.02 266.84 164.11 264.85 161.77 262.83 C 156.11 257.97 157.57 256.82 163.58 261.40 C 168.05 264.82 171.00 265.94 171.00 264.21 C 171.00 263.78 168.74 261.74 165.97 259.67 C 163.20 257.60 161.21 255.47 161.54 254.93 C 161.89 254.37 164.18 255.41 166.83 257.31 C 173.62 262.21 173.79 262.27 174.99 260.01 C 175.59 258.89 175.73 258.08 175.29 258.21 C 174.86 258.34 171.65 256.21 168.16 253.48 C 157.63 245.22 157.58 245.20 153.90 247.91 C 150.40 250.51 146.22 250.97 144.94 248.90 C 143.97 247.33 143.50 247.69 142.56 250.75 C 141.99 252.59 142.25 253.00 143.96 253.00 C 145.12 253.00 146.32 253.68 146.64 254.50 C 146.95 255.32 147.87 256.00 148.67 256.00 C 149.47 256.00 151.34 257.12 152.81 258.50 C 160.53 265.67 165.97 269.28 166.02 267.25ZM 136.30 258.75 C 139.29 253.63 142.00 244.87 142.00 240.32 C 142.00 234.71 140.27 236.64 139.06 243.59 C 137.86 250.46 135.27 258.00 134.11 258.00 C 133.74 258.00 133.34 259.12 133.23 260.50 C 132.94 263.94 133.42 263.67 136.30 258.75ZM 132.22 257.25 C 134.58 252.83 136.04 247.71 137.46 238.89 C 138.17 234.48 137.92 234.27 127.00 230.00 C 106.22 221.89 100.00 217.94 87.44 204.86 C 56.93 173.06 56.86 173.00 47.44 173.00 C 42.47 173.00 41.86 173.24 40.98 175.57 C 39.23 180.16 39.93 186.64 43.06 194.84 C 44.74 199.25 46.77 203.39 47.56 204.05 C 48.35 204.71 49.00 205.78 49.00 206.43 C 49.00 207.09 49.79 208.50 50.75 209.56 C 51.71 210.63 55.71 215.81 59.64 221.08 C 71.58 237.09 78.47 242.49 97.50 250.74 C 101.90 252.65 107.97 255.06 111.00 256.11 C 114.03 257.15 117.40 258.42 118.50 258.93 C 127.26 262.98 129.29 262.73 132.22 257.25ZM 175.99 253.75 C 175.99 252.51 174.68 249.23 173.09 246.46 C 170.51 241.96 169.61 241.24 164.55 239.65 C 157.58 237.45 154.58 238.04 149.60 242.60 C 146.69 245.27 146.02 246.42 146.89 247.29 C 147.75 248.15 149.10 247.85 152.37 246.07 C 157.91 243.04 159.80 243.57 168.00 250.42 C 171.57 253.40 174.84 255.88 175.25 255.92 C 175.66 255.97 176.00 254.99 175.99 253.75ZM 142.00 232.65 C 142.00 231.90 141.55 225.49 141.00 218.40 C 138.19 182.10 135.43 171.69 126.77 164.74 C 122.81 161.57 111.00 154.42 111.00 155.20 C 111.00 155.39 111.88 158.71 112.95 162.58 C 116.33 174.76 117.22 183.00 117.01 200.00 C 116.89 209.07 116.73 218.05 116.65 219.94 C 116.50 223.31 116.64 223.44 123.50 226.08 C 127.35 227.56 130.67 228.61 130.89 228.41 C 132.46 226.97 129.59 198.69 126.53 185.47 C 124.69 177.55 124.53 174.13 126.07 175.67 C 127.95 177.55 131.93 200.06 133.13 215.63 L 134.30 230.77 L 137.40 232.25 C 141.48 234.21 142.00 234.25 142.00 232.65ZM 226.66 209.81 C 222.61 190.25 221.70 181.74 222.22 168.39 C 222.71 155.50 222.42 154.61 218.65 157.46 C 217.64 158.23 216.29 158.74 215.65 158.60 C 215.02 158.45 214.84 158.52 215.26 158.75 C 215.67 158.98 215.70 159.68 215.32 160.30 C 214.93 160.92 214.72 162.90 214.84 164.70 C 214.96 166.50 214.31 169.12 213.39 170.52 C 211.26 173.78 211.92 181.02 215.50 193.50 C 218.08 202.47 227.65 223.68 228.67 222.66 C 228.96 222.37 228.06 216.59 226.66 209.81ZM 236.60 218.19 C 241.66 213.30 248.48 204.80 255.22 195.00 C 264.16 182.01 267.17 175.76 267.17 170.19 C 267.17 166.46 267.69 165.16 270.08 162.92 C 271.69 161.42 273.00 159.52 273.00 158.69 C 273.00 156.90 267.20 151.76 266.01 152.49 C 265.56 152.77 262.70 157.19 259.64 162.31 C 252.26 174.68 244.27 191.57 233.65 217.25 C 231.80 221.72 232.67 222.00 236.60 218.19ZM 236.23 205.00 L 240.24 195.50 L 239.69 183.18 C 239.19 171.92 239.31 170.69 241.07 168.93 C 243.58 166.42 243.50 165.09 240.63 161.75 L 238.27 159.00 L 235.58 161.69 C 233.30 163.97 232.98 164.95 233.51 168.04 C 233.95 170.68 233.11 175.30 230.48 184.60 C 227.95 193.54 227.01 198.57 227.41 201.00 C 229.44 213.22 231.01 218.59 231.79 215.95 C 232.03 215.15 234.03 210.22 236.23 205.00ZM 114.98 206.14 C 115.00 199.62 114.48 197.58 110.45 188.14 C 107.95 182.29 105.23 175.92 104.41 173.98 C 103.58 172.05 103.02 168.75 103.16 166.65 C 103.37 163.60 102.93 162.46 101.00 161.00 C 98.60 159.19 98.56 159.20 96.45 162.27 L 94.33 165.38 L 96.83 167.53 C 99.12 169.50 99.40 170.64 100.06 180.66 C 100.78 191.57 100.82 191.68 107.03 203.90 C 114.01 217.63 114.96 217.89 114.98 206.14ZM 114.67 184.68 C 113.73 173.48 112.07 166.70 110.58 167.93 C 108.29 169.83 106.91 167.07 108.75 164.27 C 110.13 162.15 110.19 161.15 109.13 157.19 C 107.86 152.44 106.41 150.00 104.88 150.00 C 104.39 150.00 104.00 150.59 104.00 151.31 C 104.00 152.03 103.09 153.60 101.98 154.79 L 99.96 156.96 L 104.07 160.68 C 107.33 163.63 107.90 164.61 106.84 165.45 C 106.10 166.03 105.36 167.33 105.18 168.35 C 104.90 170.01 113.93 192.00 114.89 192.00 C 115.11 192.00 115.02 188.71 114.67 184.68ZM 231.60 168.41 C 231.08 167.03 230.72 166.98 229.38 168.10 C 228.03 169.22 227.57 169.14 226.42 167.56 C 225.15 165.82 225.01 165.81 224.39 167.43 C 223.64 169.39 224.78 188.84 225.75 190.40 C 226.64 191.85 232.36 170.38 231.60 168.41ZM 248.00 179.00 C 252.65 169.73 253.28 167.15 250.13 170.25 C 249.11 171.25 248.50 171.06 247.05 169.29 C 245.35 167.21 245.15 167.18 243.71 168.79 C 242.87 169.73 242.09 171.18 241.97 172.00 C 241.57 174.87 242.00 189.00 242.49 189.00 C 242.76 189.00 245.24 184.50 248.00 179.00ZM 94.17 161.61 C 95.73 159.45 96.90 157.57 96.76 157.44 C 96.62 157.31 92.75 155.76 88.16 153.99 C 83.58 152.23 78.35 149.49 76.53 147.89 C 72.66 144.49 71.88 144.37 70.31 146.88 C 69.32 148.47 69.59 149.19 72.09 151.59 C 73.72 153.15 74.82 155.03 74.54 155.76 C 74.25 156.50 74.44 156.84 74.96 156.53 C 75.47 156.21 77.38 157.96 79.20 160.43 C 82.59 165.04 90.02 168.97 90.91 166.62 C 91.14 166.03 92.60 163.77 94.17 161.61ZM 261.25 154.85 L 265.14 148.70 L 263.09 146.64 L 261.04 144.59 L 258.27 147.17 C 254.08 151.06 250.59 153.03 244.59 154.89 L 239.14 156.58 L 244.16 162.29 L 249.17 168.01 L 253.27 164.50 C 255.52 162.57 259.11 158.23 261.25 154.85ZM 234.56 154.06 C 233.15 152.59 232.00 150.85 232.00 150.20 C 232.00 148.53 230.90 148.73 228.03 150.94 C 225.95 152.54 225.54 153.73 225.47 158.36 C 225.42 161.40 225.70 163.68 226.09 163.45 C 226.47 163.21 227.09 163.80 227.47 164.76 C 228.03 166.21 228.88 165.70 232.63 161.62 L 237.12 156.74 L 234.56 154.06ZM 100.39 153.12 C 101.33 152.09 102.18 150.00 102.30 148.48 L 102.50 145.71 L 94.00 145.60 C 87.12 145.51 84.59 145.03 80.76 143.07 C 78.15 141.74 75.72 140.94 75.37 141.30 C 74.36 142.30 77.85 146.97 80.52 148.19 C 81.85 148.80 82.68 149.71 82.37 150.21 C 82.06 150.72 82.41 151.01 83.15 150.86 C 85.42 150.40 90.12 152.00 89.49 153.02 C 89.16 153.55 89.51 153.74 90.26 153.45 C 91.02 153.16 92.73 153.37 94.07 153.90 C 97.61 155.32 98.50 155.21 100.39 153.12ZM 244.89 152.54 C 247.16 151.74 250.98 149.73 253.38 148.08 C 255.78 146.43 258.03 145.29 258.37 145.54 C 258.72 145.79 258.78 145.70 258.51 145.34 C 258.24 144.98 258.50 144.10 259.09 143.39 C 261.38 140.63 258.83 140.39 253.80 142.88 C 249.43 145.04 247.21 145.47 240.70 145.42 L 232.87 145.35 L 233.51 147.93 C 234.34 151.24 236.84 154.00 239.03 154.00 C 239.97 154.00 242.61 153.34 244.89 152.54ZM 103.91 141.54 C 112.43 137.10 116.93 124.19 115.66 107.76 C 114.79 96.47 113.67 94.58 107.61 94.19 C 103.63 93.94 102.84 94.15 103.31 95.37 C 105.61 101.36 91.01 98.97 75.40 90.79 C 75.09 90.63 74.70 92.75 74.53 95.50 C 74.35 98.34 72.94 103.26 71.26 106.88 L 68.32 113.25 L 66.19 110.26 C 65.02 108.62 64.29 107.05 64.56 106.77 C 64.84 106.49 63.90 106.49 62.46 106.76 C 54.94 108.20 59.19 124.00 67.09 124.00 C 68.37 124.00 69.30 125.26 70.17 128.18 C 71.41 132.31 78.05 140.10 81.01 140.90 C 81.83 141.12 84.53 141.90 87.00 142.63 C 92.04 144.12 99.92 143.61 103.91 141.54ZM 255.30 139.67 C 260.45 136.65 263.72 132.59 265.14 127.47 C 265.93 124.61 266.57 124.00 268.80 123.99 C 273.64 123.98 277.60 115.33 275.39 109.58 C 274.45 107.13 271.38 107.71 269.15 110.75 C 267.84 112.54 266.81 113.15 266.19 112.50 C 264.43 110.63 260.00 98.17 260.00 95.08 C 260.00 93.39 259.83 92.00 259.63 92.00 C 259.42 92.00 257.28 93.09 254.88 94.42 C 249.14 97.59 239.87 100.21 235.77 99.81 C 233.31 99.58 232.42 98.97 232.19 97.36 C 231.93 95.53 231.28 95.23 227.70 95.36 C 223.75 95.49 223.43 95.73 222.12 99.50 C 220.15 105.21 220.27 121.18 222.34 128.18 C 225.62 139.29 231.32 143.28 243.12 142.71 C 249.14 142.42 251.69 141.79 255.30 139.67ZM 121.53 116.86 C 122.20 113.80 120.47 108.00 118.88 108.00 C 118.40 108.00 118.00 111.21 118.00 115.12 C 118.00 121.20 118.21 122.07 119.44 121.05 C 120.23 120.40 121.17 118.51 121.53 116.86ZM 218.16 114.77 C 217.85 108.26 217.68 107.72 216.41 109.46 C 214.76 111.72 214.56 117.31 216.04 120.07 C 217.91 123.57 218.50 122.10 218.16 114.77ZM 269.00 106.50 C 269.68 105.67 271.28 105.00 272.54 105.00 C 274.47 105.00 275.00 104.24 275.87 100.17 C 276.44 97.52 276.73 94.48 276.51 93.42 C 276.29 92.37 275.83 89.76 275.49 87.64 C 274.79 83.28 270.86 79.00 267.57 79.00 C 266.27 79.00 264.76 77.87 263.73 76.12 C 260.99 71.48 255.79 69.56 246.00 69.58 C 236.89 69.59 228.53 71.57 222.44 75.17 C 219.94 76.64 219.23 77.52 220.11 78.07 C 221.03 78.64 220.37 79.96 217.69 82.93 C 215.66 85.17 213.99 87.57 213.99 88.25 C 213.98 88.94 213.69 90.55 213.35 91.83 C 212.84 93.72 213.08 94.09 214.61 93.83 C 216.52 93.50 216.58 93.68 216.91 101.75 C 217.05 105.12 219.00 104.47 219.00 101.06 C 219.00 99.40 219.98 97.04 221.25 95.65 C 223.10 93.63 224.77 93.09 230.75 92.59 C 236.81 92.09 238.00 92.23 238.00 93.49 C 238.00 94.32 237.55 95.00 237.00 95.00 C 236.45 95.00 236.00 95.51 236.00 96.14 C 236.00 99.22 253.67 93.54 258.67 88.84 C 261.73 85.97 263.00 87.28 263.00 93.31 C 262.99 98.32 265.68 108.00 267.08 108.00 C 267.45 108.00 268.32 107.33 269.00 106.50ZM 70.25 102.74 C 71.27 100.26 72.00 95.90 72.00 92.30 C 72.00 85.49 72.88 84.10 75.40 86.89 C 77.87 89.62 90.59 95.20 95.63 95.77 C 100.28 96.29 101.09 95.56 98.25 93.38 C 96.78 92.25 96.73 91.89 97.92 91.11 C 98.70 90.60 100.27 90.52 101.42 90.94 C 102.56 91.36 105.71 91.78 108.41 91.87 C 114.41 92.06 115.44 92.85 117.11 98.51 C 118.65 103.72 119.96 102.63 119.98 96.13 C 120.00 92.23 120.22 91.82 122.04 92.30 C 123.60 92.71 123.97 92.44 123.59 91.17 C 123.32 90.25 122.81 88.30 122.46 86.83 C 122.11 85.36 120.21 82.69 118.23 80.89 C 116.20 79.04 115.15 77.45 115.82 77.23 C 121.94 75.19 100.55 67.00 89.09 67.00 C 80.91 67.00 70.00 72.54 70.00 76.69 C 70.00 77.46 68.84 78.00 67.17 78.00 C 62.06 78.00 58.00 84.40 58.00 92.44 C 58.00 99.98 59.03 103.07 61.89 104.08 C 63.33 104.58 65.17 105.42 66.00 105.94 C 68.28 107.37 68.37 107.30 70.25 102.74Z"/></g>
<g fill="#9FA1C6FF">
<path d="M 144.58 226.25 C 142.49 190.77 138.68 171.80 132.45 165.95 C 131.14 164.72 130.34 163.21 130.69 162.60 C 131.04 162.00 131.00 161.79 130.60 162.14 C 129.81 162.85 114.42 153.72 109.25 149.47 C 105.37 146.29 105.20 144.78 108.41 142.25 C 111.80 139.59 115.82 133.39 116.99 129.04 C 117.58 126.85 118.95 124.83 120.36 124.07 C 124.74 121.73 126.01 111.15 122.41 106.98 C 121.54 105.97 121.42 104.96 122.04 103.98 C 122.55 103.16 122.98 101.49 122.98 100.25 C 122.99 99.01 123.95 97.05 125.11 95.89 C 126.85 94.15 127.11 93.06 126.56 89.64 C 126.20 87.36 125.08 84.10 124.07 82.40 C 123.07 80.69 122.38 78.07 122.54 76.56 C 122.71 75.05 122.60 74.07 122.30 74.37 C 122.00 74.67 120.32 73.82 118.57 72.49 C 114.66 69.50 109.01 67.03 102.75 65.57 L 98.01 64.46 L 103.74 61.04 C 106.89 59.15 110.26 57.67 111.23 57.74 C 112.20 57.82 115.81 56.60 119.25 55.05 C 128.43 50.90 140.91 47.18 151.33 45.50 C 174.17 41.79 203.58 45.09 222.57 53.49 C 225.69 54.87 229.37 56.00 230.74 56.00 C 232.11 56.00 236.83 58.14 241.24 60.75 L 249.24 65.50 L 245.37 65.75 C 238.34 66.20 229.77 68.13 224.60 70.42 C 218.24 73.25 212.52 77.92 213.83 79.23 C 214.43 79.83 213.91 81.71 212.40 84.34 C 209.71 89.06 209.15 96.41 211.39 97.70 C 212.16 98.14 213.26 100.25 213.85 102.38 C 214.69 105.44 214.60 106.87 213.46 109.08 C 212.66 110.63 212.00 113.77 212.00 116.05 C 212.00 119.42 212.63 120.83 215.32 123.52 C 217.14 125.34 219.22 128.78 219.93 131.16 C 220.73 133.82 222.94 137.20 225.65 139.92 C 228.09 142.35 229.87 144.91 229.60 145.59 C 228.95 147.30 219.30 153.70 208.81 159.38 C 204.03 161.97 198.77 165.64 197.12 167.52 C 193.59 171.54 192.69 174.42 189.94 190.50 C 186.25 212.16 183.99 217.26 174.37 225.67 C 170.69 228.88 166.64 232.49 165.36 233.69 C 163.59 235.36 162.24 235.75 159.72 235.34 C 157.76 235.02 154.84 235.46 152.58 236.40 C 145.37 239.41 145.35 239.39 144.58 226.25Z"/></g>
<g fill="#3B3E4BFF">
<path d="M 229.75 282.44 C 228.71 281.36 228.84 246.33 229.93 236.00 L 230.83 227.50 L 238.30 220.00 C 242.41 215.88 249.58 207.41 254.23 201.18 C 264.47 187.48 269.99 176.86 270.02 170.80 C 270.03 167.53 270.63 165.93 272.52 164.15 C 273.88 162.85 275.00 161.16 275.00 160.40 C 275.00 159.63 275.18 159.00 275.41 159.00 C 275.76 159.00 288.99 165.92 289.78 166.51 C 289.93 166.63 288.48 168.47 286.55 170.61 C 280.64 177.17 279.48 182.16 279.61 200.50 C 279.68 211.60 280.35 220.33 281.79 229.00 C 283.60 239.85 283.80 244.09 283.29 261.13 L 282.70 280.77 L 274.10 281.36 C 256.98 282.55 230.48 283.20 229.75 282.44Z"/></g>
<g fill="#9FA1C6FF">
<path d="M 150.50 306.47 C 139.36 304.43 126.99 300.51 117.11 295.91 C 112.50 293.76 108.51 292.00 108.24 292.00 C 107.98 292.00 108.03 293.00 108.35 294.22 C 108.90 296.32 108.80 296.30 106.71 293.86 C 105.50 292.43 102.70 290.20 100.50 288.88 L 96.50 286.50 L 102.50 286.28 C 113.76 285.87 142.49 283.86 144.75 283.32 C 146.74 282.85 147.00 282.16 147.00 277.39 C 147.00 273.45 147.37 272.00 148.39 272.00 C 149.16 272.00 150.05 272.68 150.36 273.50 C 151.00 275.15 154.54 275.55 155.46 274.07 C 155.78 273.55 157.51 273.37 159.31 273.66 C 161.60 274.03 162.99 273.71 163.92 272.60 C 164.65 271.72 165.88 271.00 166.65 271.00 C 167.43 271.00 168.32 270.32 168.64 269.50 C 168.95 268.68 169.66 268.00 170.21 268.00 C 170.76 268.00 172.58 266.85 174.26 265.44 C 176.44 263.60 177.51 263.21 178.05 264.08 C 179.15 265.87 183.52 262.41 193.03 252.22 L 201.16 243.50 L 200.55 258.00 C 200.21 265.98 199.71 274.34 199.43 276.60 C 199.10 279.28 199.37 281.04 200.21 281.71 C 202.25 283.31 225.40 286.00 237.50 286.04 L 248.50 286.07 L 245.50 288.56 C 243.85 289.92 241.38 291.29 240.00 291.60 C 238.62 291.90 234.57 293.44 231.00 295.01 C 209.27 304.58 197.95 307.15 175.50 307.60 C 163.52 307.84 156.14 307.51 150.50 306.47Z"/></g>
<g fill="#2662C8FF">
<path d="M 125.46 260.58 C 123.83 259.88 120.70 258.75 118.50 258.07 C 111.67 255.97 96.89 249.96 88.00 245.68 C 81.12 242.36 77.88 239.95 71.00 233.04 C 60.89 222.88 47.81 204.53 43.98 195.13 C 37.04 178.07 40.22 170.61 52.94 174.10 C 57.69 175.40 59.72 177.26 87.50 205.80 C 99.11 217.73 105.54 221.93 123.06 229.06 C 129.90 231.84 135.89 234.50 136.36 234.97 C 138.47 237.05 132.42 259.39 129.21 261.37 C 128.77 261.64 127.09 261.28 125.46 260.58Z"/></g>
<g fill="#3B3E4BFF">
<path d="M 286.21 260.78 C 286.62 243.76 286.40 238.88 284.80 230.03 C 282.34 216.43 281.34 192.41 282.92 184.87 C 284.18 178.84 288.94 170.34 291.65 169.30 C 294.19 168.33 297.47 172.88 299.82 180.66 C 310.85 217.17 313.69 238.98 310.69 264.33 C 309.85 271.39 308.95 277.38 308.69 277.64 C 308.24 278.09 290.03 280.90 287.11 280.97 C 285.96 280.99 285.81 277.60 286.21 260.78Z"/></g>
<g fill="#2662C8FF">
<path d="M 83.86 281.87 C 70.66 281.03 49.50 278.43 47.92 277.45 C 47.34 277.09 47.14 276.07 47.49 275.17 C 47.83 274.28 49.03 267.46 50.16 260.02 C 52.29 246.00 52.21 236.01 49.88 222.33 C 48.12 212.03 48.89 211.94 56.15 221.63 C 64.06 232.17 71.13 239.62 77.12 243.73 C 82.52 247.43 95.95 253.86 106.17 257.65 C 114.99 260.92 115.00 260.95 115.00 274.12 L 115.00 282.00 L 110.75 282.16 C 98.98 282.60 94.57 282.55 83.86 281.87Z"/></g>
<g fill="#3B3E4BFF">
<path d="M 210.00 280.78 L 203.50 279.83 L 203.46 247.66 C 203.44 229.97 202.89 210.55 202.25 204.50 C 201.60 198.45 200.98 187.72 200.87 180.65 L 200.67 167.80 L 205.33 164.90 C 207.90 163.31 210.45 162.00 211.00 162.00 C 212.53 162.00 212.19 166.31 210.37 169.95 C 209.15 172.40 208.91 174.61 209.40 178.85 C 210.78 190.72 217.35 209.26 224.34 221.00 L 227.75 226.73 L 226.82 245.11 C 226.31 255.23 226.03 267.66 226.20 272.75 L 226.50 282.00 L 221.50 281.87 C 218.75 281.79 213.57 281.30 210.00 280.78Z"/></g>
<g fill="#F1A855FF">
<path d="M 89.45 142.08 C 88.93 141.58 87.15 140.96 85.50 140.70 C 81.48 140.08 74.84 136.07 75.66 134.75 C 76.02 134.15 75.84 133.98 75.22 134.36 C 73.92 135.17 73.03 133.89 72.37 130.25 C 72.10 128.76 71.57 127.31 71.19 127.02 C 70.81 126.73 70.00 125.60 69.39 124.50 C 68.78 123.40 67.65 122.49 66.89 122.48 C 65.30 122.46 60.54 119.33 60.41 118.23 C 60.37 117.83 60.01 116.78 59.61 115.90 C 58.07 112.45 60.80 108.48 64.01 109.50 C 65.12 109.86 65.80 110.51 65.52 110.97 C 65.05 111.73 67.17 113.00 68.92 113.00 C 69.64 113.00 73.75 102.94 75.64 96.58 C 76.67 93.10 78.22 92.37 80.26 94.41 C 81.09 95.23 82.04 95.63 82.38 95.29 C 82.72 94.95 83.00 95.09 83.00 95.62 C 83.00 96.14 84.21 96.66 85.69 96.79 C 87.18 96.91 88.64 97.35 88.94 97.75 C 89.61 98.64 91.85 99.00 98.25 99.22 C 101.98 99.35 103.43 98.91 105.04 97.19 C 107.23 94.84 111.43 94.26 112.60 96.15 C 113.91 98.27 114.33 102.41 114.34 113.00 C 114.35 125.90 113.69 129.64 110.85 132.66 C 109.64 133.95 109.00 135.00 109.42 135.00 C 109.84 135.00 108.30 136.58 106.00 138.50 C 103.70 140.43 101.43 141.77 100.97 141.48 C 100.51 141.20 99.86 141.42 99.51 141.98 C 98.73 143.25 90.74 143.33 89.45 142.08Z"/></g>
<g fill="#F1A855FF">
<path d="M 237.48 142.09 C 231.48 140.61 225.07 135.29 225.02 131.75 C 225.01 130.79 224.63 130.00 224.17 130.00 C 223.05 130.00 221.00 118.47 221.00 112.18 C 221.00 109.39 221.48 104.86 222.07 102.11 C 223.01 97.74 223.50 97.05 226.12 96.47 C 228.53 95.94 229.56 96.31 231.50 98.41 C 232.82 99.83 234.58 101.00 235.40 101.00 C 238.75 101.00 247.83 98.60 252.87 96.37 C 259.36 93.51 259.00 93.53 259.00 96.06 C 259.00 98.48 262.01 108.05 263.23 109.50 C 263.69 110.05 264.69 111.40 265.45 112.49 C 266.80 114.44 266.87 114.43 269.36 111.75 C 273.59 107.18 276.80 110.38 274.61 116.97 C 273.47 120.40 272.43 121.32 267.84 122.94 C 266.03 123.58 264.97 124.85 264.51 126.94 C 264.14 128.62 263.40 130.00 262.86 130.00 C 262.32 130.00 262.17 130.47 262.52 131.04 C 263.18 132.10 256.02 139.36 255.17 138.50 C 254.91 138.24 253.30 138.87 251.60 139.91 C 247.90 142.15 241.65 143.12 237.48 142.09Z"/></g>
<g fill="#9FA1C6FF">
<path d="M 303.55 181.55 C 300.59 170.62 297.64 167.22 285.28 160.56 C 273.88 154.41 263.00 144.71 263.00 140.70 C 263.00 139.61 264.24 136.14 265.75 132.97 C 267.84 128.60 269.13 127.09 271.15 126.66 C 272.61 126.35 274.82 124.66 276.06 122.92 C 278.58 119.38 279.80 111.24 278.22 108.43 C 277.65 107.42 277.56 105.73 278.01 104.56 C 278.46 103.43 279.21 100.94 279.68 99.04 L 280.55 95.58 L 284.78 102.26 C 287.10 105.94 289.00 109.54 289.00 110.25 C 289.00 110.97 291.05 116.21 293.55 121.90 C 300.53 137.75 304.25 153.99 305.26 173.00 C 305.39 175.47 305.95 177.42 306.50 177.33 C 307.63 177.14 307.24 186.04 306.06 187.29 C 305.65 187.73 304.52 185.14 303.55 181.55Z"/></g>
<g fill="#3B3E4BFF">
<path d="M 66.00 105.94 C 65.17 105.42 63.33 104.58 61.89 104.08 C 59.03 103.07 58.00 99.98 58.00 92.44 C 58.00 84.40 62.06 78.00 67.17 78.00 C 68.84 78.00 70.00 77.46 70.00 76.69 C 70.00 72.54 80.91 67.00 89.09 67.00 C 95.34 67.00 106.98 69.87 112.15 72.68 C 117.04 75.34 117.98 76.51 115.82 77.23 C 115.15 77.45 116.20 79.04 118.23 80.89 C 120.21 82.69 122.11 85.36 122.46 86.83 C 122.81 88.30 123.32 90.25 123.59 91.17 C 123.97 92.44 123.60 92.71 122.04 92.30 C 120.22 91.82 120.00 92.23 119.98 96.13 C 119.96 102.63 118.65 103.72 117.11 98.51 C 115.44 92.85 114.41 92.06 108.41 91.87 C 105.71 91.78 102.56 91.36 101.42 90.94 C 100.27 90.52 98.70 90.60 97.92 91.11 C 96.73 91.89 96.78 92.25 98.25 93.38 C 101.09 95.56 100.28 96.29 95.63 95.77 C 90.59 95.20 77.87 89.62 75.40 86.89 C 72.88 84.10 72.00 85.49 72.00 92.30 C 72.00 95.90 71.27 100.26 70.25 102.74 C 68.37 107.30 68.28 107.37 66.00 105.94Z"/></g>
<g fill="#672D09FF">
<path d="M 265.61 103.42 C 265.27 102.55 265.00 100.97 265.00 99.92 C 265.00 98.86 264.58 98.00 264.07 98.00 C 263.51 98.00 263.48 96.80 264.01 94.98 C 265.15 91.00 265.12 90.79 263.27 88.75 C 261.18 86.43 258.77 86.53 257.23 89.00 C 256.55 90.10 255.35 91.00 254.57 91.00 C 253.80 91.00 251.78 91.67 250.08 92.50 C 248.39 93.33 245.61 94.67 243.92 95.50 C 240.36 97.23 238.00 97.43 238.00 96.00 C 238.00 95.45 238.45 95.00 239.00 95.00 C 241.01 95.00 239.93 93.21 237.25 92.11 C 235.33 91.32 233.46 91.28 231.04 91.98 C 228.76 92.64 227.24 92.64 226.59 91.99 C 225.19 90.59 222.95 90.76 223.25 92.25 C 223.39 92.94 222.90 93.38 222.18 93.23 C 221.45 93.07 221.14 93.41 221.49 93.98 C 221.84 94.55 221.42 95.28 220.56 95.61 C 219.70 95.94 219.00 96.84 219.00 97.61 C 219.00 98.37 218.50 99.00 217.89 99.00 C 217.28 99.00 217.06 98.29 217.40 97.41 C 217.73 96.53 217.11 94.69 216.00 93.28 C 213.45 90.03 213.45 87.31 216.00 86.50 C 217.10 86.15 218.00 85.11 218.00 84.18 C 218.00 83.26 219.58 80.73 221.50 78.57 C 223.43 76.41 225.00 74.27 225.00 73.82 C 225.00 73.37 226.46 72.99 228.25 72.99 C 232.43 72.97 236.11 71.98 235.52 71.03 C 235.27 70.62 236.22 70.51 237.64 70.78 C 239.05 71.05 240.53 70.76 240.92 70.14 C 241.43 69.30 243.14 69.28 247.41 70.07 C 250.59 70.66 253.83 70.90 254.60 70.60 C 255.37 70.30 256.00 70.46 256.00 70.95 C 256.00 71.44 257.59 72.82 259.53 74.02 C 261.47 75.22 263.60 76.71 264.28 77.35 C 265.58 78.58 269.57 80.61 271.92 81.23 C 273.44 81.64 273.84 83.60 274.63 94.53 L 275.14 101.56 L 271.54 103.28 C 267.09 105.40 266.37 105.42 265.61 103.42Z"/></g>
<g fill="#2662C8FF">
<path d="M 101.39 213.73 C 97.63 210.83 88.25 201.63 80.53 193.27 C 64.23 175.63 60.69 172.64 53.38 170.33 C 50.42 169.40 48.00 168.36 48.00 168.02 C 48.00 167.69 50.36 165.63 53.25 163.46 C 56.13 161.28 60.39 157.77 62.71 155.65 C 65.03 153.54 67.38 151.97 67.92 152.15 C 69.65 152.76 83.04 170.11 90.57 181.50 C 98.53 193.55 110.00 214.71 110.00 217.34 C 110.00 219.93 108.71 219.39 101.39 213.73Z"/></g>
<g fill="#3B3E4BFF">
<path d="M 179.64 258.23 C 179.37 257.28 178.85 254.93 178.48 253.00 C 177.64 248.66 174.03 242.29 170.60 239.08 C 169.17 237.74 168.00 236.36 168.00 236.01 C 168.00 235.65 170.90 233.04 174.44 230.20 C 185.95 220.97 189.16 214.34 192.90 191.95 C 195.03 179.24 196.85 172.00 197.92 172.00 C 198.25 172.00 198.34 174.14 198.14 176.75 C 197.93 179.36 198.55 193.77 199.53 208.77 C 200.82 228.64 201.01 236.69 200.23 238.40 C 199.44 240.12 199.47 241.11 200.33 242.08 C 201.29 243.16 201.21 243.18 199.88 242.19 C 198.59 241.22 198.02 241.27 197.05 242.44 C 195.66 244.11 196.58 246.38 198.22 245.36 C 198.89 244.95 199.02 245.16 198.57 245.89 C 198.03 246.76 197.46 246.80 196.52 246.02 C 195.53 245.20 193.98 246.36 189.95 250.96 C 187.05 254.28 183.65 257.66 182.40 258.48 C 180.34 259.82 180.08 259.80 179.64 258.23Z"/></g>
<g fill="#2662C8FF">
<path d="M 138.50 231.17 C 134.74 230.45 134.31 229.12 133.70 216.26 C 133.12 204.18 128.85 177.99 126.96 174.93 C 126.30 173.86 125.80 173.80 124.93 174.67 C 124.05 175.55 124.30 178.22 125.94 185.66 C 127.84 194.30 130.96 218.43 130.99 224.75 C 131.00 227.61 128.86 227.66 122.37 224.97 L 117.48 222.93 L 117.49 200.22 C 117.49 179.94 117.25 176.55 115.25 168.67 C 114.01 163.82 113.00 159.17 113.00 158.35 C 113.00 155.94 124.60 162.81 129.11 167.90 C 135.02 174.56 137.70 185.96 140.07 214.54 C 141.39 230.54 141.28 231.71 138.50 231.17Z"/></g>
<g fill="#9FA1C6FF">
<path d="M 39.11 166.45 C 39.25 163.67 39.06 160.91 38.69 160.31 C 38.31 159.69 38.71 159.28 39.63 159.36 C 40.88 159.47 41.64 157.56 43.00 151.00 C 45.05 141.04 46.94 134.59 50.02 127.00 C 51.24 123.97 52.38 119.98 52.55 118.12 C 52.98 113.39 54.71 111.94 55.57 115.61 C 56.75 120.60 59.95 124.85 63.49 126.13 C 65.51 126.86 67.09 128.22 67.41 129.50 C 67.71 130.68 69.01 133.20 70.30 135.11 C 71.59 137.01 72.46 139.11 72.24 139.78 C 71.48 142.06 59.83 153.89 54.16 158.14 C 51.05 160.47 46.33 164.43 43.68 166.94 L 38.86 171.50 L 39.11 166.45Z"/></g>
<g fill="#3B3E4BFF">
<path d="M 233.65 217.25 C 245.64 188.25 255.59 167.63 257.13 168.58 C 257.86 169.03 258.04 168.88 257.61 168.18 C 256.72 166.73 259.78 160.75 261.03 161.52 C 261.55 161.84 261.73 161.45 261.42 160.65 C 261.11 159.86 261.41 158.86 262.09 158.45 C 262.92 157.93 263.05 158.11 262.50 159.00 C 261.98 159.85 262.08 160.07 262.80 159.62 C 263.41 159.24 263.69 158.35 263.41 157.63 C 263.14 156.92 263.74 155.31 264.75 154.06 L 266.59 151.79 L 269.80 154.48 C 273.76 157.81 273.81 159.44 270.08 162.92 C 267.69 165.16 267.17 166.46 267.17 170.19 C 267.17 173.14 266.22 176.63 264.46 180.12 C 259.64 189.71 242.88 212.86 238.01 216.66 C 237.19 217.30 236.11 217.57 235.61 217.26 C 235.10 216.94 235.04 217.25 235.47 217.96 C 235.93 218.69 235.68 219.59 234.88 220.10 C 232.37 221.69 232.09 221.04 233.65 217.25Z"/></g>
<g fill="#3B3E4BFF">
<path d="M 224.17 215.21 C 219.33 205.91 213.63 189.50 214.33 186.86 C 214.59 185.84 214.46 185.21 214.03 185.48 C 213.16 186.02 212.03 180.25 212.01 175.19 C 212.00 172.94 212.37 172.11 213.15 172.60 C 213.88 173.05 214.04 172.87 213.57 172.11 C 213.16 171.45 213.26 170.37 213.78 169.71 C 215.13 167.99 215.90 163.00 214.81 163.00 C 214.28 163.00 214.30 162.29 214.86 161.29 C 215.55 160.05 215.36 159.21 214.16 158.24 C 212.70 157.05 212.75 157.01 214.61 157.91 C 216.17 158.66 217.22 158.55 218.61 157.49 C 222.43 154.61 222.71 155.48 222.22 168.39 C 221.70 181.74 222.61 190.25 226.66 209.81 C 228.06 216.59 228.99 222.34 228.73 222.60 C 228.47 222.86 226.42 219.53 224.17 215.21Z"/></g>
<g fill="#DB2626FF">
<path d="M 230.70 211.00 C 230.40 210.18 229.64 207.21 229.01 204.40 C 227.98 199.77 228.17 198.21 231.07 187.40 C 232.82 180.86 234.55 172.80 234.90 169.50 C 235.80 160.98 237.89 158.47 240.08 163.27 C 240.85 164.97 240.74 166.27 239.66 168.36 C 238.52 170.56 238.32 173.75 238.74 182.93 C 239.20 193.05 239.02 195.30 237.39 199.03 C 232.63 209.96 231.22 212.47 230.70 211.00Z"/></g>
<g fill="#080524FF">
<path d="M 153.50 309.88 C 140.59 308.01 115.13 299.74 109.44 295.58 C 105.39 292.62 108.94 293.20 117.55 296.91 C 154.58 312.86 191.65 313.00 226.79 297.34 C 232.45 294.82 237.37 293.04 237.72 293.39 C 240.57 296.24 209.60 307.33 191.45 309.96 C 183.19 311.15 161.94 311.11 153.50 309.88Z"/></g>
<g fill="#080524FF">
<path d="M 112.88 55.13 C 116.20 52.58 133.83 46.19 144.00 43.86 C 156.37 41.02 179.52 40.32 193.13 42.36 C 208.20 44.62 231.00 52.22 231.00 54.99 C 231.00 56.38 230.48 56.28 226.21 54.12 C 214.25 48.05 190.08 43.00 173.00 43.00 C 155.42 43.00 133.53 47.66 118.74 54.54 C 112.42 57.48 109.42 57.79 112.88 55.13Z"/></g>
<g fill="#DB2626FF">
<path d="M 110.57 207.82 C 109.80 205.99 107.49 201.57 105.43 198.00 C 102.01 192.06 101.64 190.70 101.22 182.25 C 100.74 172.62 101.58 170.71 103.84 176.25 C 104.57 178.04 106.99 183.53 109.22 188.45 C 112.03 194.67 113.41 199.29 113.76 203.57 C 114.34 210.84 112.73 212.99 110.57 207.82Z"/></g>
<g fill="#2662C8FF">
<path d="M 118.91 277.88 C 118.86 275.47 118.65 271.14 118.43 268.25 C 117.96 262.18 118.50 261.93 126.32 264.59 L 131.00 266.19 L 131.00 273.59 L 131.00 281.00 L 128.12 281.00 C 126.54 281.00 123.84 281.28 122.12 281.62 C 119.02 282.25 119.00 282.23 118.91 277.88Z"/></g>
<g fill="#080524FF">
<path d="M 305.60 167.75 C 304.29 150.17 299.63 132.22 292.88 118.78 C 289.88 112.82 289.41 111.00 290.85 111.00 C 292.46 111.00 299.93 128.67 302.94 139.60 C 306.00 150.69 308.00 163.60 308.00 172.22 C 308.00 180.53 306.32 177.39 305.60 167.75Z"/></g>
<g fill="#F1A855FF">
<path d="M 153.75 258.92 C 152.79 258.36 152.00 257.25 152.00 256.45 C 152.00 255.65 151.66 255.10 151.25 255.21 C 150.02 255.56 146.00 253.01 146.00 251.88 C 146.00 251.31 146.56 251.03 147.25 251.28 C 147.94 251.52 150.68 250.63 153.34 249.30 L 158.19 246.87 L 161.59 249.19 C 163.46 250.46 164.99 251.84 164.99 252.25 C 165.00 252.66 165.64 253.00 166.43 253.00 C 167.90 253.00 172.58 258.76 171.76 259.57 C 171.51 259.82 169.33 258.45 166.91 256.52 C 161.83 252.49 161.00 252.27 161.00 254.93 C 161.00 256.16 160.19 256.98 158.75 257.20 C 157.51 257.39 156.61 258.10 156.75 258.77 C 157.05 260.25 156.11 260.29 153.75 258.92Z"/></g>
<g fill="#F1A855FF">
<path d="M 169.84 250.75 C 165.79 247.03 159.50 243.00 157.74 243.00 C 155.52 243.00 151.00 245.12 151.00 246.16 C 151.00 246.62 150.55 247.00 150.00 247.00 C 148.44 247.00 148.81 245.75 151.27 242.67 C 153.69 239.65 160.05 237.99 162.29 239.80 C 162.96 240.33 164.96 241.08 166.75 241.46 C 168.54 241.85 170.00 242.60 170.00 243.13 C 170.00 243.67 171.12 245.76 172.50 247.79 C 173.88 249.81 175.00 251.81 175.00 252.23 C 175.00 253.75 172.25 252.96 169.84 250.75Z"/></g>
<g fill="#2662C8FF">
<path d="M 135.21 272.61 C 135.53 263.71 136.61 262.39 140.20 266.50 C 142.39 269.00 144.21 276.18 143.29 278.65 C 143.06 279.28 141.08 279.97 138.89 280.18 L 134.93 280.56 L 135.21 272.61Z"/></g>
<g fill="#F1A855FF">
<path d="M 236.07 150.10 C 233.19 146.06 233.41 145.69 238.25 146.40 C 240.85 146.79 244.63 146.46 248.00 145.54 C 259.24 142.49 258.91 142.47 255.00 145.90 C 251.68 148.81 242.55 153.00 239.53 153.00 C 238.76 153.00 237.21 151.69 236.07 150.10Z"/></g>
<g fill="#F1A855FF">
<path d="M 90.52 151.76 C 88.88 151.17 86.93 150.08 86.20 149.34 C 85.46 148.60 84.04 148.00 83.04 148.00 C 82.03 148.00 80.95 147.32 80.64 146.50 C 80.32 145.68 79.37 145.00 78.53 145.00 C 77.69 145.00 77.00 144.55 77.00 144.00 C 77.00 143.45 77.65 143.00 78.44 143.00 C 79.23 143.00 80.16 143.45 80.50 144.00 C 80.84 144.55 82.02 145.00 83.12 145.00 C 84.23 145.00 86.09 145.51 87.27 146.14 C 89.89 147.55 96.89 147.84 97.31 146.57 C 97.48 146.06 98.38 145.93 99.31 146.29 C 101.14 146.99 101.68 151.00 99.94 151.00 C 99.36 151.00 99.16 151.45 99.50 152.00 C 100.32 153.32 94.38 153.16 90.52 151.76Z"/></g>
<g fill="#080524FF">
<path d="M 39.00 156.63 C 39.00 150.95 47.58 122.36 50.12 119.57 C 52.03 117.46 51.94 120.07 49.93 125.12 C 46.78 133.03 43.15 145.49 41.89 152.69 C 40.82 158.86 39.00 161.34 39.00 156.63Z"/></g>
<g fill="#3B3E4BFF">
<path d="M 265.06 104.25 C 264.32 102.19 263.51 99.94 263.25 99.25 C 263.00 98.56 263.28 98.00 263.89 98.00 C 264.50 98.00 265.01 99.01 265.02 100.25 C 265.05 104.82 266.42 105.56 271.00 103.50 L 275.15 101.63 L 274.73 94.57 C 274.50 90.68 273.95 86.38 273.52 85.00 C 272.92 83.11 273.02 82.77 273.90 83.58 C 275.82 85.36 276.93 94.99 275.83 100.25 C 274.98 104.28 274.48 105.00 272.49 105.00 C 271.20 105.00 269.47 105.67 268.64 106.50 C 266.61 108.53 266.59 108.52 265.06 104.25Z"/></g>
<g fill="#DB2626FF">
<path d="M 98.61 166.98 C 96.56 161.86 96.57 161.80 99.25 162.18 C 101.12 162.45 101.55 163.22 101.81 166.75 C 102.20 172.11 100.70 172.21 98.61 166.98Z"/></g>
</svg>
