<?xml version="1.0" encoding="utf-8"?>
<!DOCTYPE svg PUBLIC "-//W3C//DTD SVG 20010904//EN" "http://www.w3.org/TR/2001/REC-SVG-20010904/DTD/svg10.dtd">
<svg version="1.0" xmlns="http://www.w3.org/2000/svg" width="252pt" height="252pt" viewBox="0 0 252 252" preserveAspectRatio="xMidYMid meet">
<g fill="#FEFEFEFE">
<path d="M 131.50 228.38 C 112.28 225.52 93.04 220.10 81.67 214.33 L 76.74 211.83 L 67.49 214.90 C 58.31 217.94 43.02 219.99 39.51 218.64 C 38.09 218.10 38.38 217.37 41.41 213.83 C 46.31 208.11 49.29 199.86 48.78 193.50 C 48.47 189.71 47.38 187.04 44.30 182.50 C 36.01 170.28 29.72 154.71 25.79 136.69 C 23.88 127.93 23.57 123.48 23.57 105.00 C 23.57 86.57 23.89 82.06 25.78 73.40 C 31.33 47.94 41.37 27.59 54.66 14.87 C 62.60 7.27 75.61 3.69 102.00 1.86 C 120.61 0.57 155.06 1.46 168.16 3.57 C 189.87 7.06 207.67 15.81 221.95 30.00 C 232.19 40.18 238.86 50.89 243.59 64.74 C 249.31 81.48 250.33 90.55 250.35 125.00 C 250.38 166.33 248.41 178.71 238.74 197.92 L 233.50 208.34 L 225.54 212.62 C 216.21 217.64 200.54 223.01 186.50 226.02 C 178.54 227.72 172.22 228.22 155.50 228.49 C 143.95 228.68 133.15 228.63 131.50 228.38ZM 102.07 145.96 C 103.53 145.18 104.00 143.86 104.00 140.49 L 104.00 136.05 L 86.89 135.77 L 69.78 135.50 L 85.81 115.33 C 103.37 93.24 104.00 92.31 104.00 88.57 L 104.00 86.00 L 79.50 86.00 L 55.00 86.00 L 55.00 91.48 L 55.00 96.95 L 71.38 97.23 L 87.75 97.50 L 70.88 118.42 C 55.62 137.33 54.00 139.71 54.00 143.17 L 54.00 147.00 L 77.07 147.00 C 91.05 147.00 100.89 146.59 102.07 145.96ZM 140.63 144.69 C 143.47 143.22 143.77 143.25 145.32 145.06 C 146.38 146.30 148.26 147.00 150.49 147.00 L 154.00 147.00 L 154.00 124.00 L 154.00 101.00 L 149.08 101.00 C 146.31 101.00 144.00 101.49 143.79 102.13 C 143.53 102.90 142.29 102.66 139.96 101.42 C 134.99 98.76 124.77 98.90 119.50 101.70 C 109.19 107.16 104.33 117.87 107.04 129.15 C 108.04 133.34 109.38 135.51 113.53 139.66 C 116.40 142.53 120.27 145.34 122.12 145.91 C 126.67 147.30 136.89 146.63 140.63 144.69ZM 124.03 135.25 C 114.89 130.64 114.31 116.79 123.04 111.64 C 126.79 109.42 133.76 109.56 137.63 111.92 C 142.05 114.61 144.53 121.31 143.09 126.67 C 141.91 131.06 138.96 134.32 134.68 135.93 C 130.72 137.44 128.03 137.26 124.03 135.25ZM 173.00 116.50 L 173.00 86.00 L 167.50 86.00 L 162.00 86.00 L 162.00 115.30 C 162.00 136.76 162.32 144.92 163.20 145.80 C 163.86 146.46 166.34 147.00 168.70 147.00 L 173.00 147.00 L 173.00 116.50ZM 214.06 144.25 C 220.70 140.89 225.42 134.92 226.90 128.04 C 231.65 105.90 205.14 90.06 187.96 104.77 C 182.07 109.81 179.64 115.14 179.64 123.00 C 179.64 141.10 197.97 152.41 214.06 144.25ZM 197.39 134.96 C 191.91 132.25 189.54 127.81 190.24 121.57 C 191.55 109.93 206.01 105.28 213.44 114.11 C 219.75 121.61 217.32 131.78 208.28 135.63 C 203.97 137.47 202.24 137.36 197.39 134.96Z"/></g>
<g fill="#0065F8FE">
<path d="M 99.00 249.39 C 67.93 246.72 46.72 237.83 29.80 220.38 C 19.18 209.44 12.01 196.97 7.63 181.85 C 3.18 166.48 2.54 159.50 2.54 126.00 C 2.54 92.50 3.18 85.52 7.63 70.15 C 12.01 55.03 19.18 42.56 29.80 31.62 C 36.75 24.45 50.89 14.00 53.63 14.00 C 53.92 14.00 52.17 16.36 49.75 19.25 C 43.48 26.73 41.75 29.42 36.70 39.52 C 26.78 59.40 22.62 78.74 22.61 105.00 C 22.60 136.12 29.45 160.74 44.69 184.41 C 47.77 189.19 48.49 191.23 48.43 194.98 C 48.35 200.71 45.92 206.98 41.42 213.11 C 39.54 215.67 38.00 218.10 38.00 218.51 C 38.00 218.92 42.84 219.05 48.75 218.79 C 57.28 218.42 61.28 217.70 68.12 215.33 L 76.73 212.33 L 81.62 214.82 C 96.05 222.18 116.49 227.41 137.75 229.20 C 168.27 231.77 201.68 225.80 224.46 213.70 C 230.88 210.29 230.93 210.28 229.07 212.88 C 219.93 225.59 203.40 237.22 186.38 242.93 C 170.78 248.15 162.32 249.16 131.50 249.49 C 116.10 249.65 101.47 249.61 99.00 249.39Z"/></g>
<g fill="#0065F8FE">
<path d="M 125.00 145.85 C 107.36 142.61 100.84 118.91 114.13 106.30 C 120.86 99.91 131.31 98.14 139.75 101.97 C 143.24 103.56 144.00 103.64 144.00 102.45 C 144.00 101.38 145.30 101.00 149.00 101.00 L 154.00 101.00 L 154.00 123.50 L 154.00 146.00 L 150.04 146.00 C 147.17 146.00 145.79 145.48 145.06 144.11 C 144.08 142.29 143.93 142.28 140.28 144.01 C 135.42 146.31 130.63 146.88 125.00 145.85ZM 136.95 135.52 C 146.76 130.45 146.09 115.76 135.80 110.40 C 124.35 104.45 111.53 118.22 117.75 129.78 C 121.30 136.38 130.17 139.03 136.95 135.52Z"/></g>
<g fill="#0065F8FE">
<path d="M 199.00 146.06 C 180.87 142.42 173.64 119.47 186.59 106.65 C 193.81 99.51 205.23 97.46 213.64 101.80 C 221.47 105.83 227.00 114.61 227.00 123.00 C 227.00 137.24 212.90 148.85 199.00 146.06ZM 210.70 135.04 C 215.33 132.22 217.38 128.52 217.38 123.00 C 217.38 105.30 191.51 104.11 189.36 121.71 C 188.02 132.65 201.16 140.86 210.70 135.04Z"/></g>
<g fill="#0065F8FE">
<path d="M 54.30 142.52 C 54.72 139.95 59.33 133.51 72.05 117.77 L 89.22 96.50 L 72.11 96.23 L 55.00 95.95 L 55.00 90.98 L 55.00 86.00 L 79.61 86.00 C 101.63 86.00 104.15 86.17 103.61 87.58 C 103.27 88.45 103.00 90.00 103.00 91.02 C 103.00 92.04 95.36 102.47 86.02 114.19 C 76.69 125.91 69.04 135.84 69.02 136.25 C 69.01 136.66 76.88 137.00 86.50 137.00 L 104.00 137.00 L 104.00 139.57 C 104.00 140.98 103.53 143.00 102.96 144.07 C 101.99 145.90 100.63 146.00 77.83 146.00 L 53.74 146.00 L 54.30 142.52Z"/></g>
<g fill="#0065F8FE">
<path d="M 163.04 144.07 C 162.39 142.86 162.00 131.50 162.00 114.07 L 162.00 86.00 L 167.00 86.00 L 172.00 86.00 L 172.00 116.00 L 172.00 146.00 L 168.04 146.00 C 165.14 146.00 163.79 145.48 163.04 144.07Z"/></g>
<g fill="#87B8FDFE">
<path d="M 168.24 146.27 L 171.97 145.88 L 172.25 115.69 L 172.53 85.50 L 172.77 116.25 L 173.00 147.00 L 168.75 146.83 L 164.50 146.66 L 168.24 146.27Z"/></g>
<g fill="#87B8FDFE">
<path d="M 65.81 146.25 C 72.58 146.08 83.38 146.08 89.81 146.25 C 96.24 146.43 90.70 146.57 77.50 146.57 C 64.30 146.57 59.04 146.43 65.81 146.25Z"/></g>
<g fill="#C0DAFEFE">
<path d="M 77.20 136.26 C 81.98 136.07 90.08 136.07 95.20 136.25 C 100.31 136.44 96.40 136.59 86.50 136.59 C 76.60 136.59 72.41 136.44 77.20 136.26Z"/></g>
<g fill="#87B8FDFE">
<path d="M 63.25 96.26 C 68.06 96.07 75.94 96.07 80.75 96.26 C 85.56 96.44 81.62 96.59 72.00 96.59 C 62.38 96.59 58.44 96.44 63.25 96.26Z"/></g>
<g fill="#87B8FDFE">
<path d="M 146.75 229.26 C 149.64 229.06 154.36 229.06 157.25 229.26 C 160.14 229.46 157.78 229.63 152.00 229.63 C 146.22 229.63 143.86 229.46 146.75 229.26Z"/></g>
<g fill="#87B8FDFE">
<path d="M 22.36 105.00 C 22.36 99.78 22.53 97.64 22.74 100.25 C 22.94 102.86 22.94 107.14 22.74 109.75 C 22.53 112.36 22.36 110.22 22.36 105.00Z"/></g>
</svg>
