<?xml version="1.0" encoding="UTF-8"?>
<svg version="1.1" xmlns="http://www.w3.org/2000/svg" width="394" height="179">
<path d="M0 0 C11.55 0 23.1 0 35 0 C35 1.32 35 2.64 35 4 C33.68 4 32.36 4 31 4 C30.89736343 4.56117523 30.79472687 5.12235046 30.6889801 5.70053101 C29.26300515 13.17793355 27.36573144 20.49948796 25.40234375 27.8515625 C25.04827836 29.18592481 24.69444248 30.52034804 24.34082031 31.85482788 C23.21114687 36.11282778 22.07484186 40.36904298 20.9375 44.625 C20.74489216 45.34621033 20.55228432 46.06742065 20.35383987 46.81048584 C18.43244275 54.00489068 16.50746191 61.19832337 14.57631588 68.39011765 C12.96370768 74.39570693 11.36220691 80.40402211 9.77828979 86.41725159 C3.84649319 108.88593559 -1.88822828 130.00303321 -23.30859375 142.515625 C-24.19675781 143.00546875 -25.08492188 143.4953125 -26 144 C-26.75410156 144.44859375 -27.50820312 144.8971875 -28.28515625 145.359375 C-45.18378026 154.75072008 -65.5812691 156.90903919 -84.25 152.3125 C-99.36246679 147.53490347 -109.58406898 139.50567179 -118 126 C-118.43441406 125.31292969 -118.86882812 124.62585938 -119.31640625 123.91796875 C-121.03326028 121.07648559 -122 119.37463461 -122 116 C-116.72 116 -111.44 116 -106 116 C-105.29875 117.794375 -104.5975 119.58875 -103.875 121.4375 C-100.2906255 129.92786195 -97.00108585 136.91649028 -88.4140625 141.06640625 C-77.68625122 145.21518764 -67.31180062 144.48887706 -56.69140625 140.2890625 C-52.03811645 138.06034605 -48.03591798 135.19346908 -44 132 C-43.20335938 131.37996094 -42.40671875 130.75992188 -41.5859375 130.12109375 C-24.78404327 116.21317126 -21.03319002 91.62305076 -15.7069397 71.57608414 C-14.83112919 68.28642416 -13.94623766 64.99920731 -13.0625 61.71166992 C-11.03027182 54.1441361 -9.01389031 46.57243534 -7 39 C-6.46182975 36.97963405 -5.92358702 34.95928741 -5.38525391 32.93896484 C-2.90627088 23.63048373 -0.44080223 14.31857474 2 5 C1.01 4.34 0.02 3.68 -1 3 C-0.67 2.01 -0.34 1.02 0 0 Z " fill="#059CC7" transform="translate(162,16)"/>
<path d="M0 0 C1.75244019 -0.0099852 1.75244019 -0.0099852 3.5402832 -0.02017212 C6.00112339 -0.03026056 8.46199072 -0.03499032 10.92285156 -0.03466797 C14.67558919 -0.0390486 18.42715696 -0.07543152 22.1796875 -0.11328125 C24.578121 -0.11914877 26.97656006 -0.12311859 29.375 -0.125 C30.48979736 -0.13937103 31.60459473 -0.15374207 32.75317383 -0.16854858 C41.54076975 -0.11728034 48.2875252 1.9359627 54.6875 8.3359375 C58.49170194 14.55632176 60.78868928 20.95670359 59.6875 28.3359375 C55.9513113 39.04187732 49.38856058 45.00385037 39.39624023 49.97753906 C32.75731922 53.02987608 25.88767089 54.27708884 18.6875 55.3359375 C18.54127197 55.90626709 18.39504395 56.47659668 18.24438477 57.06420898 C17.58315885 59.63488539 16.91665229 62.20416324 16.25 64.7734375 C16.01990234 65.67126953 15.78980469 66.56910156 15.55273438 67.49414062 C15.33037109 68.34814453 15.10800781 69.20214844 14.87890625 70.08203125 C14.67467041 70.87279053 14.47043457 71.6635498 14.26000977 72.47827148 C13.6875 74.3359375 13.6875 74.3359375 12.6875 75.3359375 C9.99095146 75.40913371 7.32058542 75.42836287 4.625 75.3984375 C3.86638672 75.39392578 3.10777344 75.38941406 2.32617188 75.38476562 C0.44658129 75.3729443 -1.43296899 75.35500828 -3.3125 75.3359375 C-2.65914916 68.45507802 -1.04750725 62.00047715 0.75 55.3359375 C1.03166016 54.27503906 1.31332031 53.21414062 1.60351562 52.12109375 C2.29353133 49.52476349 2.98829203 46.92980439 3.6875 44.3359375 C3.13320312 44.90183594 2.57890625 45.46773437 2.0078125 46.05078125 C1.28335938 46.78425781 0.55890625 47.51773438 -0.1875 48.2734375 C-0.90679687 49.00433594 -1.62609375 49.73523438 -2.3671875 50.48828125 C-6.58067261 54.49024602 -11.41124889 53.59481928 -16.9375 53.6484375 C-17.91074219 53.67744141 -18.88398438 53.70644531 -19.88671875 53.73632812 C-27.50377828 53.80296458 -32.74289093 52.40804008 -38.5546875 47.40625 C-43.74970789 41.21696734 -45.89225235 36.15051456 -45.68359375 27.98828125 C-44.63268171 20.47702574 -40.51612426 14.59741304 -34.68359375 9.93359375 C-23.49909321 2.39741464 -13.25171794 0.02645651 0 0 Z M7.6875 2.3359375 C5.60084524 7.69037235 3.86176531 12.99365275 2.42578125 18.5546875 C2.23026169 19.29803345 2.03474213 20.04137939 1.83329773 20.80725098 C1.21827018 23.14913823 0.60903669 25.49248597 0 27.8359375 C-0.41953726 29.4376008 -0.83945575 31.03916428 -1.25976562 32.640625 C-2.28174845 36.53792417 -3.29854295 40.43654293 -4.3125 44.3359375 C-3.6525 44.6659375 -2.9925 44.9959375 -2.3125 45.3359375 C1.59093007 43.95256188 4.85703291 41.88336982 6.83789062 38.19238281 C7.68995284 35.63308645 8.34349464 33.09203735 8.9375 30.4609375 C9.17291504 29.53579346 9.40833008 28.61064941 9.65087891 27.6574707 C10.1259056 25.78375431 10.58846289 23.90682956 11.03808594 22.02685547 C11.80811983 18.83613608 12.65870859 15.67173228 13.52246094 12.50537109 C14.2631144 9.78718629 14.97567942 7.06179161 15.6875 4.3359375 C12.78149739 3.07928772 10.89145416 2.3359375 7.6875 2.3359375 Z M30.6875 6.3359375 C29.25702865 11.67281306 27.83304751 17.011362 26.41503906 22.3515625 C25.93179227 24.16779205 25.44677891 25.98355253 24.95996094 27.79882812 C24.26031377 30.4089404 23.56704804 33.02067656 22.875 35.6328125 C22.65626221 36.44337097 22.43752441 37.25392944 22.2121582 38.08905029 C22.01195068 38.84953674 21.81174316 39.61002319 21.60546875 40.39355469 C21.42781982 41.05973816 21.2501709 41.72592163 21.06713867 42.41229248 C20.55842051 44.66319721 20.55842051 44.66319721 20.6875 48.3359375 C29.3642548 46.1667488 35.07166439 40.74924923 39.6875 33.3359375 C41.83273683 26.90022702 41.87536255 18.89773041 38.9375 12.7109375 C37.27415868 9.91510848 35.61035493 7.89479346 32.6875 6.3359375 C32.0275 6.3359375 31.3675 6.3359375 30.6875 6.3359375 Z M-23.875 15.79296875 C-28.76291134 21.30641636 -29.72733876 26.73641906 -29.56640625 33.87109375 C-28.98301314 39.53449451 -26.65018059 43.59655768 -22.3125 47.3359375 C-19.55783482 44.58127232 -19.08996251 41.44336707 -18.1484375 37.7734375 C-17.95150299 37.02634521 -17.75456848 36.27925293 -17.55166626 35.50952148 C-17.13669203 33.93004193 -16.72502178 32.34969119 -16.31640625 30.76855469 C-15.6895202 28.34375166 -15.05270641 25.92172985 -14.4140625 23.5 C-14.01243696 21.96629861 -13.6113761 20.43244922 -13.2109375 18.8984375 C-13.0203476 18.17132568 -12.82975769 17.44421387 -12.63339233 16.69506836 C-11.65354294 13.06273682 -11.65354294 13.06273682 -11.3125 9.3359375 C-16.32275236 9.3359375 -20.27581409 12.43672789 -23.875 15.79296875 Z " fill="#069DC7" transform="translate(219.3125,73.6640625)"/>
<path d="M0 0 C1.48125366 0.00424484 1.48125366 0.00424484 2.99243164 0.00857544 C6.12008215 0.0196943 9.24743728 0.04478334 12.375 0.0703125 C14.50650626 0.08035302 16.63801704 0.08947699 18.76953125 0.09765625 C23.9714535 0.11960638 29.17320564 0.15300043 34.375 0.1953125 C34.375 1.1853125 34.375 2.1753125 34.375 3.1953125 C35.09171875 2.88207031 35.8084375 2.56882812 36.546875 2.24609375 C43.57126229 -0.363796 50.37285378 -0.34375543 57.40234375 2.11328125 C59.94692159 3.50901999 61.50952711 4.96137175 63.375 7.1953125 C65.47791331 17.3050753 61.74049166 27.80877307 58.9375 37.4453125 C58.51090416 38.96703781 58.08576458 40.48917214 57.66210938 42.01171875 C54.5705257 52.9997868 54.5705257 52.9997868 53.375 54.1953125 C50.67845146 54.26850871 48.00808542 54.28773787 45.3125 54.2578125 C44.17458008 54.25104492 44.17458008 54.25104492 43.01367188 54.24414062 C41.13408129 54.2323193 39.25453101 54.21438328 37.375 54.1953125 C35.8327755 51.11086351 37.28328532 48.4887231 38.24609375 45.3515625 C38.65983899 43.94541067 39.07323886 42.53915718 39.48632812 41.1328125 C40.14408407 38.92419634 40.805928 36.71697855 41.47485352 34.51171875 C45.26069544 22.58579916 45.26069544 22.58579916 45.375 10.1953125 C43.79539731 8.61570981 42.17963184 9.02544706 40 9.0078125 C39.20851563 8.99363281 38.41703125 8.97945312 37.6015625 8.96484375 C35.08768667 9.05023741 35.08768667 9.05023741 32.375 11.1953125 C31.53578478 13.00903676 31.53578478 13.00903676 31.04052734 15.15429688 C30.71536636 16.37566345 30.71536636 16.37566345 30.38363647 17.6217041 C30.05065048 18.94204651 30.05065048 18.94204651 29.7109375 20.2890625 C29.35462753 21.6427594 29.35462753 21.6427594 28.99111938 23.02380371 C28.23321856 25.91159778 27.49115405 28.80317964 26.75 31.6953125 C25.99852351 34.58652951 25.243858 37.47688891 24.48745728 40.36682129 C24.01755132 42.16659102 23.55112628 43.96727379 23.08847046 45.7689209 C22.77276596 46.99028748 22.77276596 46.99028748 22.45068359 48.23632812 C22.266539 48.95421509 22.08239441 49.67210205 21.89266968 50.41174316 C21.375 52.1953125 21.375 52.1953125 20.375 54.1953125 C15.095 54.1953125 9.815 54.1953125 4.375 54.1953125 C4.87 49.2453125 4.87 49.2453125 5.375 44.1953125 C4.90835938 44.845 4.44171875 45.4946875 3.9609375 46.1640625 C-0.27656274 51.01547621 -3.43234442 53.3455126 -9.8359375 53.96875 C-19.07947151 54.34158781 -29.29759015 54.60679612 -36.625 48.1953125 C-41.90948084 42.94441946 -44.4786831 37.39870716 -44.6875 29.97265625 C-44.23907724 21.80295412 -40.27070415 16.53031432 -34.5 11.0078125 C-24.44850547 2.49498269 -12.84642814 -0.14061927 0 0 Z M8.375 1.1953125 C6.80363781 6.97812291 5.23718496 12.76223198 3.67529297 18.54760742 C3.14311737 20.51607268 2.60959537 22.48417444 2.07470703 24.4519043 C1.30668648 27.27819141 0.54349667 30.10574475 -0.21875 32.93359375 C-0.45936157 33.81493484 -0.69997314 34.69627594 -0.94787598 35.60432434 C-1.16810425 36.42494858 -1.38833252 37.24557281 -1.61523438 38.09106445 C-1.81064819 38.81276321 -2.00606201 39.53446198 -2.20739746 40.2780304 C-2.73140997 42.35681921 -2.73140997 42.35681921 -2.625 45.1953125 C1.53793865 43.72604004 4.94101903 41.98953657 8.375 39.1953125 C9.52692563 36.39292784 10.28122462 34.06028108 10.9296875 31.1484375 C11.12096222 30.37723572 11.31223694 29.60603394 11.50930786 28.8114624 C12.11176222 26.36085429 12.68118485 23.90392214 13.25 21.4453125 C13.65409072 19.77681932 14.06031822 18.10884209 14.46875 16.44140625 C15.46234159 12.36493411 16.42639756 8.28247732 17.375 4.1953125 C14.405 3.2053125 11.435 2.2153125 8.375 1.1953125 Z M-20.625 13.1953125 C-25.86386643 18.43417893 -27.79773006 23.88359426 -28.0625 31.1328125 C-27.92285321 36.43274049 -27.08433817 41.03129434 -23.625 45.1953125 C-22.305 45.8553125 -20.985 46.5153125 -19.625 47.1953125 C-14.675 28.3853125 -14.675 28.3853125 -9.625 9.1953125 C-13.94297199 9.1953125 -16.99552017 10.9470922 -20.625 13.1953125 Z " fill="#079EC7" transform="translate(323.625,73.8046875)"/>
<path d="M0 0 C11.55 0 23.1 0 35 0 C35 1.32 35 2.64 35 4 C33.68 4.33 32.36 4.66 31 5 C30.75023407 5.95339264 30.50046814 6.90678528 30.24313354 7.8890686 C27.86213413 16.97709555 25.47995663 26.06481302 23.09669304 35.15224648 C21.87215998 39.82156327 20.64800916 44.4909795 19.42480469 49.16064453 C9.02788589 88.8494639 9.02788589 88.8494639 4 107 C4.66 107 5.32 107 6 107 C5.505 108.98 5.505 108.98 5 111 C-6.55 111 -18.1 111 -30 111 C-30 110.01 -30 109.02 -30 108 C-27.525 107.505 -27.525 107.505 -25 107 C-24.80841309 106.14696289 -24.61682617 105.29392578 -24.41943359 104.41503906 C-21.17994511 90.2318222 -17.45356424 76.17132188 -13.76464844 62.10009766 C-12.81821971 58.48976742 -11.87584221 54.87839396 -10.93451309 51.26673126 C-6.81158759 35.45601344 -2.59748094 19.68081308 2 4 C1.01 4 0.02 4 -1 4 C-0.67 2.68 -0.34 1.36 0 0 Z " fill="#049BC6" transform="translate(32,16)"/>
<path d="M0 0 C5.94 0 11.88 0 18 0 C20.97 14.355 20.97 14.355 24 29 C26.31071346 26.11160818 28.5933082 23.25017648 30.8046875 20.29296875 C31.30613281 19.62330078 31.80757812 18.95363281 32.32421875 18.26367188 C32.83597656 17.57853516 33.34773438 16.89339844 33.875 16.1875 C35.40331516 14.14518627 36.93107457 12.10365556 38.48095703 10.07763672 C40.03888761 8.00719579 40.03888761 8.00719579 41.39013672 5.72314453 C44.82548002 0.34178239 44.82548002 0.34178239 48.15869141 -0.62817383 C50.61383975 -0.78710197 52.923867 -0.70328376 55.375 -0.5 C56.20644531 -0.46390625 57.03789063 -0.4278125 57.89453125 -0.390625 C59.93169655 -0.29696223 61.96646593 -0.15347427 64 0 C63.3035458 6.16233785 61.75928226 11.96404161 60.09375 17.9296875 C59.66660706 19.47609421 59.66660706 19.47609421 59.23083496 21.05374146 C58.63109151 23.22098126 58.02920367 25.38762866 57.42529297 27.55371094 C56.49772334 30.88317194 55.57847292 34.21485146 54.66015625 37.546875 C54.07601245 39.6537822 53.49139387 41.76055783 52.90625 43.8671875 C52.63018921 44.86813446 52.35412842 45.86908142 52.06970215 46.90036011 C51.8127356 47.81866608 51.55576904 48.73697205 51.29101562 49.68310547 C51.06530884 50.49472137 50.83960205 51.30633728 50.60705566 52.14254761 C50 54 50 54 49 55 C46.13732433 55.07325168 43.299281 55.09238205 40.4375 55.0625 C39.63119141 55.05798828 38.82488281 55.05347656 37.99414062 55.04882812 C35.99606244 55.03700518 33.99802217 55.01906914 32 55 C32 52.69 32 50.38 32 48 C31.74089844 48.5053125 31.48179688 49.010625 31.21484375 49.53125 C29.63837445 51.96103754 28.427987 53.37727502 26 55 C20.93181825 55.63021278 16.07957788 55.40714174 11 55 C8.71428571 46.57142857 8.71428571 46.57142857 9 42 C8.34 42 7.68 42 7 42 C6.86722656 42.60328125 6.73445313 43.2065625 6.59765625 43.828125 C6.42105469 44.62734375 6.24445312 45.4265625 6.0625 46.25 C5.88847656 47.03890625 5.71445312 47.8278125 5.53515625 48.640625 C5.0527843 50.76728673 4.52889301 52.88442798 4 55 C-2.27 55 -8.54 55 -15 55 C-13.50935392 49.25587243 -12.01689959 43.51227347 -10.52001953 37.76977539 C-10.01280333 35.82180144 -9.50659306 33.87356525 -9.00146484 31.92504883 C-6.22137461 21.20380974 -3.37062371 10.55326232 0 0 Z " fill="#059CC7" transform="translate(53,72)"/>
<path d="M0 0 C2.475 0.495 2.475 0.495 5 1 C4.39854361 4.57114732 4.09964304 4.92319182 1 7.3125 C-2.56497376 10.57897118 -2.66118256 14.28380491 -2.875 18.875 C-2.95925531 21.25327243 -2.99394289 23.61955648 -3 26 C-4.65614657 26.38218767 -6.32457024 26.71395102 -8 27 C-9.73956658 25.26043342 -9.37190386 22.8063378 -9.5625 20.4375 C-9.64628906 19.42558594 -9.73007813 18.41367187 -9.81640625 17.37109375 C-9.87699219 16.58863281 -9.93757813 15.80617188 -10 15 C-10.61488281 15.17917969 -11.22976562 15.35835937 -11.86328125 15.54296875 C-12.67152344 15.75566406 -13.47976562 15.96835937 -14.3125 16.1875 C-15.11300781 16.40792969 -15.91351563 16.62835938 -16.73828125 16.85546875 C-19 17 -19 17 -20.79296875 15.55078125 C-21.19128906 15.03902344 -21.58960938 14.52726562 -22 14 C-22.70125 14.66 -23.4025 15.32 -24.125 16 C-27.43460229 18.30233203 -29.06225823 18.36630156 -33 18 C-33.20625 18.7425 -33.4125 19.485 -33.625 20.25 C-35.44843271 23.89686542 -37.39549224 25.16240781 -41 27 C-43.875 26.75 -43.875 26.75 -46 26 C-45.875 24.25 -45.875 24.25 -45 22 C-43.5459375 21.195625 -43.5459375 21.195625 -42.0625 20.375 C-38.05956753 17.27068503 -37.94059369 14.89108663 -37.2265625 10.046875 C-37.15179688 9.37140625 -37.07703125 8.6959375 -37 8 C-38.11375 7.9175 -39.2275 7.835 -40.375 7.75 C-44 7 -44 7 -45.4375 4.9375 C-45.7159375 3.9784375 -45.7159375 3.9784375 -46 3 C-44 1 -44 1 -41.69335938 0.75708008 C-40.75298828 0.76118896 -39.81261719 0.76529785 -38.84375 0.76953125 C-37.82152344 0.77146484 -36.79929688 0.77339844 -35.74609375 0.77539062 C-34.67488281 0.78763672 -33.60367188 0.79988281 -32.5 0.8125 C-31.42878906 0.81314453 -30.35757813 0.81378906 -29.25390625 0.81445312 C-21.28060228 0.85969886 -21.28060228 0.85969886 -19 2 C-19 4.64 -19 7.28 -19 10 C-12.49263734 8.99075625 -7.17541026 7.1825258 -2 3 C-1.34 2.01 -0.68 1.02 0 0 Z M-32 7 C-31.67 8.98 -31.34 10.96 -31 13 C-28.49034386 12.29660434 -28.49034386 12.29660434 -26 11 C-25.11306697 8.95894361 -25.11306697 8.95894361 -25 7 C-27.31 7 -29.62 7 -32 7 Z " fill="#0EA2CB" transform="translate(236,37)"/>
<path d="M0 0 C1.65 0.33 3.3 0.66 5 1 C4.41161801 5.84111765 2.92346884 9.96071195 0.9375 14.375 C0.65583984 15.01566406 0.37417969 15.65632813 0.08398438 16.31640625 C-0.60459421 17.88029659 -1.30144711 19.44053941 -2 21 C2.62 20.67 7.24 20.34 12 20 C11.01 18.02 10.02 16.04 9 14 C9.3125 11.625 9.3125 11.625 10 10 C12.25 9.9375 12.25 9.9375 15 11 C17.50676981 14.77572471 19.0969981 18.44803036 18.8125 23 C18 25 18 25 17 26 C15.21928754 26.08726223 13.4351686 26.10699041 11.65234375 26.09765625 C10.57275391 26.09443359 9.49316406 26.09121094 8.38085938 26.08789062 C7.24455078 26.07951172 6.10824219 26.07113281 4.9375 26.0625 C3.79732422 26.05798828 2.65714844 26.05347656 1.48242188 26.04882812 C-1.34510351 26.03699747 -4.1725264 26.0205141 -7 26 C-8.11083984 24.32519531 -8.11083984 24.32519531 -9 22 C-8.40087891 19.52636719 -8.40087891 19.52636719 -7.2265625 16.796875 C-6.8140625 15.8171875 -6.4015625 14.8375 -5.9765625 13.828125 C-5.53054687 12.81234375 -5.08453125 11.7965625 -4.625 10.75 C-4.18671875 9.71875 -3.7484375 8.6875 -3.296875 7.625 C-2.21164284 5.07706362 -1.11235139 2.53618649 0 0 Z " fill="#11A4CB" transform="translate(245,37)"/>
<path d="M0 0 C0.99 0.33 1.98 0.66 3 1 C3.6875 3.0625 3.6875 3.0625 4 5 C5.5159375 4.505 5.5159375 4.505 7.0625 4 C10.75479911 2.92998679 14.15248207 2.84295845 18 3 C19.14480053 7.00680184 19.26589853 8.50618844 17.25 12.25 C15 15 15 15 12 17 C9.8125 16.625 9.8125 16.625 8 16 C8.56371414 12.73045798 9.49962266 11.17424117 12 9 C10.02 9.66 8.04 10.32 6 11 C6.165 11.680625 6.33 12.36125 6.5 13.0625 C7.07089059 16.4164822 7.06659023 19.60389805 7 23 C5.35 22.67 3.7 22.34 2 22 C1.34 18.37 0.68 14.74 0 11 C-1.98 11.33 -3.96 11.66 -6 12 C-6.33 10.68 -6.66 9.36 -7 8 C-5.02 7.34 -3.04 6.68 -1 6 C-1.33 4.35 -1.66 2.7 -2 1 C-1.34 0.67 -0.68 0.34 0 0 Z " fill="#12A5CC" transform="translate(313,41)"/>
<path d="M0 0 C0.38218767 1.65614657 0.71395102 3.32457024 1 5 C0.67 5.33 0.34 5.66 0 6 C-0.103125 7.051875 -0.20625 8.10375 -0.3125 9.1875 C-1.38327663 15.1254431 -4.4237678 19.16407972 -9.15625 22.89453125 C-13.26767815 25.35964601 -18.50240156 27.46565395 -23.3046875 26.5703125 C-23.86414063 26.38210937 -24.42359375 26.19390625 -25 26 C-25 24.68 -25 23.36 -25 22 C-24.01 21.7525 -23.02 21.505 -22 21.25 C-15.91625112 19.44832183 -10.62000615 17.86417766 -7.375 12.0625 C-6.12361592 9.13534942 -5.90552056 8.35429788 -6.75 5.1875 C-7.1625 4.465625 -7.575 3.74375 -8 3 C-8 2.01 -8 1.02 -8 0 C-4.94736336 -0.98120464 -3.05263664 -0.98120464 0 0 Z " fill="#12A4CC" transform="translate(306,37)"/>
<path d="M0 0 C0.6875 1.8125 0.6875 1.8125 1 4 C-0.3125 5.75 -0.3125 5.75 -2 7 C-2.66 7 -3.32 7 -4 7 C-3.79503906 7.78503906 -3.59007812 8.57007813 -3.37890625 9.37890625 C-1.96045756 14.91017745 -0.64503363 20.32370402 0 26 C-1.65 26.33 -3.3 26.66 -5 27 C-6.20438651 23.42211911 -7.38552174 19.83698135 -8.5625 16.25 C-8.90474609 15.23421875 -9.24699219 14.2184375 -9.59960938 13.171875 C-10.07817383 11.70234375 -10.07817383 11.70234375 -10.56640625 10.203125 C-10.86490479 9.30239258 -11.16340332 8.40166016 -11.47094727 7.47363281 C-12.02524945 4.88194396 -11.87013375 3.47168427 -11 1 C-7.26562152 0.12132271 -3.83225427 -0.08912219 0 0 Z " fill="#12A6CD" transform="translate(358,37)"/>
<path d="M0 0 C0.99 0.33 1.98 0.66 3 1 C2.68145453 8.6450912 -1.01227724 13.09090153 -6.375 18.3125 C-11.19846136 21.41329659 -16.1722365 23.54635283 -22 23 C-22.66 21.68 -23.32 20.36 -24 19 C-21.12581191 17.0838746 -19.88886449 16.67083399 -16.625 16.125 C-12.416277 15.21242899 -9.96078871 14.28976524 -7 11 C-5.58996363 8.42246995 -4.31777272 5.82423051 -3.11328125 3.14453125 C-2 1 -2 1 0 0 Z " fill="#15A6CD" transform="translate(383,41)"/>
<path d="M0 0 C6.6 0 13.2 0 20 0 C19.67 0.99 19.34 1.98 19 3 C19 2.34 19 1.68 19 1 C17.02 1.33 15.04 1.66 13 2 C13 3.65 13 5.3 13 7 C13.66 7.33 14.32 7.66 15 8 C14.01 8.495 14.01 8.495 13 9 C13 9.99 13 10.98 13 12 C12.34 12 11.68 12 11 12 C10.79375 12.7425 10.5875 13.485 10.375 14.25 C8.55156729 17.89686542 6.60450776 19.16240781 3 21 C0.125 20.75 0.125 20.75 -2 20 C-1.875 18.25 -1.875 18.25 -1 16 C-0.030625 15.46375 0.93875 14.9275 1.9375 14.375 C5.94043247 11.27068503 6.05940631 8.89108663 6.7734375 4.046875 C6.84820312 3.37140625 6.92296875 2.6959375 7 2 C4.69 1.67 2.38 1.34 0 1 C0 0.67 0 0.34 0 0 Z " fill="#1CADD1" transform="translate(192,43)"/>
<path d="M0 0 C0.99 0.33 1.98 0.66 3 1 C3.72337065 10.22297581 1.01616887 19.25296556 -4 27 C-5.32 26.67 -6.64 26.34 -8 26 C-7.5401863 22.41345312 -6.75760557 19.14820421 -5.5625 15.75 C-4.08804997 11.54137564 -3.23980906 7.36567877 -2.52734375 2.96875 C-2.35332031 2.3190625 -2.17929687 1.669375 -2 1 C-1.34 0.67 -0.68 0.34 0 0 Z " fill="#15A6CD" transform="translate(338,37)"/>
<path d="M0 0 C2.04049422 1.2704964 4.05017465 2.59431196 6 4 C5.67 5.32 5.34 6.64 5 8 C0.86894386 7.39249174 -2.43299325 6.18884505 -6 4 C-6.875 1.8125 -6.875 1.8125 -7 0 C-4.21306667 -1.39346667 -2.97563827 -0.87916585 0 0 Z " fill="#14A7CC" transform="translate(367,39)"/>
<path d="M0 0 C1.43836751 0.11458693 2.87570966 0.24209116 4.3125 0.375 C5.51326172 0.47941406 5.51326172 0.47941406 6.73828125 0.5859375 C9 1 9 1 12 3 C11.67 4.32 11.34 5.64 11 7 C6.94393835 6.53199289 3.53411321 6.12046792 0 4 C0 2.68 0 1.36 0 0 Z " fill="#13A5CB" transform="translate(282,38)"/>
<path d="M0 0 C3.90532683 0.37793485 7.2815754 0.76052513 11 2 C10.67 3.65 10.34 5.3 10 7 C6.7 6.34 3.4 5.68 0 5 C-0.33 3.68 -0.66 2.36 -1 1 C-0.67 0.67 -0.34 0.34 0 0 Z " fill="#11A4CB" transform="translate(281,46)"/>
<path d="M0 0 C0.6875 1.8125 0.6875 1.8125 1 4 C-0.3125 5.75 -0.3125 5.75 -2 7 C-2.66 7 -3.32 7 -4 7 C-4.66 7.66 -5.32 8.32 -6 9 C-6.66 7.02 -7.32 5.04 -8 3 C-8.66 3 -9.32 3 -10 3 C-10.66 3.66 -11.32 4.32 -12 5 C-11.67 3.68 -11.34 2.36 -11 1 C-7.26562152 0.12132271 -3.83225427 -0.08912219 0 0 Z " fill="#22B4D5" transform="translate(358,37)"/>
<path d="M0 0 C0.33 1.65 0.66 3.3 1 5 C-0.65 5.33 -2.3 5.66 -4 6 C-4.33 7.65 -4.66 9.3 -5 11 C-5.33 10.01 -5.66 9.02 -6 8 C-6.350625 7.175 -6.70125 6.35 -7.0625 5.5 C-8 3 -8 3 -8 0 C-4.94736336 -0.98120464 -3.05263664 -0.98120464 0 0 Z " fill="#37B9D8" transform="translate(306,37)"/>
<path d="M0 0 C2 0.125 2 0.125 4 1 C5.25 3.0625 5.25 3.0625 6 5 C5.01 6.485 5.01 6.485 4 8 C1.5 8.3125 1.5 8.3125 -1 8 C-1.66 7.34 -2.32 6.68 -3 6 C-2.63318342 3.06546739 -2.13562754 2.13562754 0 0 Z " fill="#11ABCF" transform="translate(270,46)"/>
<path d="M0 0 C0.33 0.99 0.66 1.98 1 3 C8.92 2.505 8.92 2.505 17 2 C16.67 2.99 16.34 3.98 16 5 C10.72 5 5.44 5 0 5 C-0.33 4.34 -0.66 3.68 -1 3 C-0.67 2.01 -0.34 1.02 0 0 Z " fill="#26BDDC" transform="translate(361,123)"/>
<path d="M0 0 C0.625 1.8125 0.625 1.8125 1 4 C0.01 5.485 0.01 5.485 -1 7 C-1.66 7 -2.32 7 -3 7 C-4.36161311 7.96113866 -5.69855198 8.95884159 -7 10 C-7.33 8.68 -7.66 7.36 -8 6 C-6.20963542 5.0234375 -4.41927083 4.046875 -2.62890625 3.0703125 C-0.83381685 2.08589976 -0.83381685 2.08589976 0 0 Z " fill="#22AED1" transform="translate(225,112)"/>
<path d="M0 0 C0.66 0.33 1.32 0.66 2 1 C-1.63 4.63 -5.26 8.26 -9 12 C-9 8.47601214 -8.44884893 7.98495633 -6.1875 5.4375 C-5.40439453 4.53837891 -5.40439453 4.53837891 -4.60546875 3.62109375 C-3 2 -3 2 0 0 Z " fill="#32B5D5" transform="translate(187,82)"/>
<path d="M0 0 C0.33 0.99 0.66 1.98 1 3 C-0.98 4.32 -2.96 5.64 -5 7 C-5.99 6.34 -6.98 5.68 -8 5 C-4.04 2.525 -4.04 2.525 0 0 Z " fill="#23B1D2" transform="translate(331,113)"/>
<path d="M0 0 C1.67542976 0.28604898 3.34385343 0.61781233 5 1 C4.67 1.66 4.34 2.32 4 3 C3.34 2.67 2.68 2.34 2 2 C2.33 4.64 2.66 7.28 3 10 C0.51280729 7.08025204 -0.58572305 4.83206182 -1 1 C-0.67 0.67 -0.34 0.34 0 0 Z " fill="#44C3DE" transform="translate(255,47)"/>
<path d="M0 0 C1.98 0.99 1.98 0.99 4 2 C4 3.32 4 4.64 4 6 C3.01 5.67 2.02 5.34 1 5 C0.67 3.35 0.34 1.7 0 0 Z " fill="#19AED0" transform="translate(303,36)"/>
</svg>
